<?xml version="1.0" standalone="no"?>
<!DOCTYPE svg PUBLIC "-//W3C//DTD SVG 20010904//EN"
 "http://www.w3.org/TR/2001/REC-SVG-20010904/DTD/svg10.dtd">
<svg version="1.0" xmlns="http://www.w3.org/2000/svg"
 width="2022.000000pt" height="200.000000pt" viewBox="0 0 2022.000000 200.000000"
 preserveAspectRatio="xMidYMid meet">

<g transform="translate(0.000000,200.000000) scale(0.100000,-0.100000)"
fill="#000000" stroke="none">
<path d="M2832 1839 c1 -90 4 -127 5 -81 4 93 -6 86 116 83 64 -2 77 0 77 13
0 12 -11 16 -37 17 -70 1 -129 19 -65 19 18 0 32 5 32 10 0 6 -20 10 -44 10
-25 0 -48 -4 -51 -10 -3 -5 2 -10 11 -10 23 0 9 -13 -17 -15 -18 -2 -20 3 -17
56 1 32 -1 61 -5 65 -4 4 -6 -67 -5 -157z"/>
<path d="M2860 1981 c0 -16 7 -18 63 -16 97 5 91 3 77 20 -9 10 -32 15 -76 15
-56 0 -64 -2 -64 -19z"/>
<path d="M4887 1993 c-4 -3 -7 -19 -7 -35 0 -15 -4 -28 -9 -28 -5 0 -7 -9 -4
-19 3 -11 0 -35 -5 -53 -6 -18 -14 -63 -18 -100 -6 -61 -5 -67 12 -66 11 1 96
-5 189 -12 219 -17 214 -13 217 -159 l2 -106 3 88 c3 68 7 87 18 87 17 0 19
-73 6 -240 -5 -60 -4 -100 3 -108 5 -8 10 -29 9 -48 0 -19 4 -37 8 -40 5 -3 9
2 9 10 0 8 8 17 18 19 16 4 16 5 0 6 -18 1 -24 16 -10 25 11 7 43 -20 34 -29
-4 -5 0 -6 9 -2 9 3 21 1 26 -4 5 -5 45 -12 88 -15 72 -4 115 -14 69 -14 -16
-1 -15 -3 6 -16 l25 -15 -25 7 c-14 4 -26 11 -28 15 -2 5 -11 9 -20 9 -15 0
-15 -2 -2 -10 13 -8 12 -10 -4 -10 -14 0 -17 -5 -12 -25 9 -34 0 -48 -23 -35
-12 6 -22 5 -30 -3 -10 -9 -11 -6 -6 16 5 17 3 27 -4 27 -6 0 -12 -15 -12 -32
-1 -20 -3 -26 -6 -14 -4 15 -7 16 -15 5 -7 -11 -11 -11 -15 -1 -2 6 -9 10 -14
6 -5 -3 -9 -1 -9 5 0 6 -7 7 -17 4 -10 -4 -14 -2 -10 4 12 19 -4 43 -30 43
-22 0 -24 4 -24 43 -1 97 -3 117 -12 117 -5 0 -7 14 -3 30 4 22 2 30 -9 30
-22 0 -38 39 -32 81 l5 39 -62 0 c-39 0 -69 6 -84 16 -21 14 -22 14 -22 -5 0
-11 -4 -23 -10 -26 -15 -10 -12 -53 6 -67 8 -7 23 -20 32 -28 10 -8 33 -28 52
-44 31 -25 89 -131 90 -163 0 -7 -11 -10 -30 -7 -26 5 -30 2 -30 -19 0 -20 5
-25 25 -23 27 1 33 11 13 19 -7 3 -3 4 10 4 22 -1 24 -5 26 -64 l1 -31 -30 15
c-40 21 -45 27 -15 19 14 -3 1 6 -29 20 -30 14 -61 22 -69 19 -13 -5 -13 -3
-1 12 12 15 12 16 -3 10 -10 -3 -18 -2 -18 3 0 5 9 12 20 15 15 5 20 15 20 38
0 47 -10 77 -26 77 -19 0 -17 -20 4 -36 15 -11 15 -13 1 -14 -12 0 -14 -8 -11
-31 3 -22 1 -30 -7 -25 -6 4 -11 13 -11 19 0 39 -26 93 -62 127 -48 48 -96 60
-134 35 -23 -15 -25 -22 -20 -53 4 -21 9 -64 12 -97 3 -33 10 -66 16 -72 14
-17 3 -43 -17 -43 -10 0 -15 -7 -13 -17 4 -21 48 -31 48 -11 1 7 7 -2 15 -21
12 -25 12 -37 4 -47 -9 -11 -7 -14 12 -14 13 0 30 -9 36 -19 15 -23 122 -78
171 -87 34 -7 60 -23 65 -41 1 -4 5 -7 10 -6 4 2 7 -1 7 -6 0 -4 10 -8 23 -7
23 1 47 -15 47 -33 0 -6 -15 -4 -36 5 -33 14 -36 14 -31 0 3 -8 2 -18 -4 -22
-14 -8 -39 15 -39 37 0 18 -4 21 -32 23 -7 1 -18 8 -25 16 -10 13 -12 13 -18
-2 -4 -10 -12 -18 -17 -18 -6 0 -8 7 -4 15 3 10 -1 15 -12 15 -9 0 -28 3 -41
7 -18 5 -22 3 -16 -7 6 -10 2 -11 -20 -6 -15 4 -41 9 -59 12 l-31 6 25 -21
c14 -11 28 -21 32 -21 17 0 -6 -30 -24 -30 -31 0 -129 49 -157 78 -45 47 -128
93 -157 86 -19 -5 -39 3 -82 32 -31 21 -59 39 -62 40 -36 7 -60 18 -60 25 0 5
-9 9 -21 9 -27 0 -191 69 -205 87 -6 7 -20 13 -31 13 -24 0 -103 55 -104 73
-3 36 -17 -48 -18 -106 -1 -61 -3 -67 -16 -53 -8 8 -15 18 -15 23 0 10 -37 43
-47 43 -3 0 -14 7 -23 15 -15 13 -20 13 -48 0 -28 -14 -34 -14 -61 -1 -16 9
-33 20 -36 26 -4 7 -13 7 -26 0 -11 -6 -24 -8 -30 -4 -20 12 -127 8 -143 -5
-9 -8 -16 -10 -16 -5 0 4 -5 3 -11 -3 -13 -13 -59 6 -59 25 0 20 -51 36 -73
23 -13 -9 -19 -8 -22 2 -3 7 -13 14 -23 15 -9 1 -26 3 -37 6 -11 2 -24 1 -29
-2 -16 -9 -59 -9 -83 -1 -19 7 -24 4 -28 -14 -7 -30 -11 -406 -5 -410 3 -1 0
-18 -7 -37 -9 -27 -12 -30 -12 -12 -1 13 -7 22 -16 22 -12 0 -15 14 -16 63 -1
34 -3 82 -4 107 -1 25 -2 71 -3 103 -2 53 -4 58 -22 52 -12 -4 -20 -2 -20 5 0
7 8 14 19 17 16 4 18 13 16 76 -4 117 -5 121 -12 113 -4 -3 -6 -25 -5 -49 1
-23 -1 -47 -6 -54 -4 -6 -9 45 -10 115 -2 84 -7 129 -15 135 -8 6 -4 7 11 4
12 -3 20 -1 16 4 -3 5 -12 9 -20 9 -8 0 -14 7 -14 16 0 8 -4 13 -9 10 -5 -3
-24 0 -42 8 -19 7 -43 17 -54 21 -11 5 -24 7 -28 6 -5 -1 -6 2 -3 7 3 5 27 7
53 6 43 -2 46 -1 29 11 -10 8 -24 11 -30 7 -6 -3 -25 -7 -43 -8 -30 -1 -31 1
-27 32 2 18 -1 36 -6 39 -9 6 -15 -22 -11 -52 1 -7 -6 -14 -16 -14 -31 -2 -38
-4 -59 -16 -21 -12 -22 -11 -13 25 5 20 8 55 7 77 l-1 40 -4 -35 c-3 -19 -9
-40 -15 -47 -5 -7 -7 -21 -3 -33 10 -32 -11 -23 -25 10 -12 28 -37 39 -54 23
-3 -4 -16 -8 -28 -10 -29 -5 -65 -39 -73 -70 -5 -21 -10 -24 -31 -19 -34 9
-47 -1 -33 -25 14 -27 4 -36 -16 -15 -10 9 -33 16 -56 16 -22 0 -38 4 -35 9 4
5 2 20 -3 33 -9 21 -10 21 -10 -9 -1 -28 -5 -33 -25 -33 -14 0 -28 -5 -31 -10
-9 -15 -27 -1 -21 16 3 8 0 14 -7 14 -7 0 -13 -9 -13 -19 0 -11 5 -17 10 -14
5 4 6 1 1 -7 -6 -10 -12 -8 -26 9 -9 11 -19 27 -21 33 -3 8 -13 6 -31 -9 -15
-11 -42 -24 -60 -27 -21 -4 -39 -15 -46 -29 -10 -19 -19 -22 -47 -19 -28 4
-34 8 -34 29 0 13 -4 22 -9 18 -6 -3 -8 -14 -6 -25 3 -16 -2 -20 -21 -20 -13
0 -33 -9 -43 -19 -19 -19 -19 -19 -16 17 3 20 2 28 -1 17 -3 -11 -11 -24 -16
-30 -8 -7 -9 -6 -3 3 5 10 -2 9 -25 -3 -17 -9 -48 -17 -67 -19 -20 -1 -38 -7
-41 -14 -9 -28 -72 -9 -73 22 -1 19 -2 18 -8 -4 -6 -21 -15 -26 -56 -32 -30
-4 -55 -14 -63 -25 -12 -17 -13 -16 -19 6 -5 20 -10 22 -37 17 -17 -4 -36 -13
-42 -21 -15 -21 -22 -19 -27 8 -4 21 -4 21 -6 1 -1 -27 -58 -40 -64 -15 -4 14
-5 14 -6 -1 0 -9 -14 -21 -30 -26 -27 -10 -30 -8 -41 19 -7 16 -16 26 -20 24
-5 -3 -11 3 -13 12 -4 14 -5 13 -6 -4 -1 -15 -9 -25 -26 -29 -14 -3 -22 -10
-19 -15 3 -5 -4 -9 -15 -9 -11 0 -24 8 -30 17 -8 16 -10 15 -16 -7 -5 -20 -12
-25 -38 -26 -18 0 -35 4 -39 10 -5 7 -8 5 -8 -4 0 -11 -2 -12 -8 -3 -8 13 -15
10 -83 -34 -33 -22 -34 -22 -41 -3 -4 11 -10 20 -13 20 -4 0 -4 -4 0 -9 3 -5
1 -12 -5 -16 -5 -3 -10 1 -10 10 0 9 -6 22 -12 29 -10 11 -16 9 -30 -10 -10
-12 -18 -27 -18 -33 0 -6 -4 -11 -10 -11 -5 0 -10 9 -10 19 0 24 -29 36 -36
16 -4 -8 -10 -13 -14 -10 -4 3 -13 -2 -20 -10 -10 -11 -26 -14 -65 -10 -41 4
-57 1 -76 -14 -34 -26 -69 -36 -69 -19 -1 9 -4 9 -13 -3 -15 -19 -45 -31 -52
-20 -2 5 -21 7 -40 4 -24 -3 -35 -1 -35 8 0 7 -6 4 -15 -7 -11 -14 -14 -15
-15 -4 0 10 -8 6 -26 -13 -14 -15 -29 -25 -35 -22 -5 4 -13 -4 -18 -17 -6 -13
-10 -17 -10 -9 -1 8 -13 1 -32 -18 -25 -26 -30 -29 -24 -11 8 25 -10 50 -35
50 -10 0 -20 5 -22 11 -5 14 -68 20 -89 8 -9 -5 -20 -20 -23 -34 -4 -14 -10
-24 -14 -24 -18 3 -32 -2 -32 -11 0 -23 -45 -60 -72 -60 l-28 0 0 -510 0 -510
974 0 c770 0 975 3 979 13 4 9 6 9 6 0 1 -7 6 -13 12 -13 6 0 8 9 3 22 -3 13
-3 20 1 16 5 -4 14 -3 22 4 8 6 13 7 12 2 -7 -40 0 -44 73 -44 70 0 71 0 53
20 -18 20 -17 20 20 20 24 0 43 -6 52 -17 8 -10 12 -12 8 -6 -4 9 4 13 27 12
18 0 27 -3 21 -6 -25 -10 -12 -23 22 -23 19 0 35 3 35 8 0 11 58 13 65 2 9
-14 142 -13 147 1 3 8 14 8 43 0 50 -14 145 -14 145 -1 0 6 12 10 26 10 14 0
23 -4 19 -10 -4 -7 477 -10 1436 -10 l1442 0 -34 22 c-19 13 -47 30 -64 38
-16 8 -34 20 -40 26 -23 24 -85 64 -99 64 -9 0 -16 4 -16 10 0 5 -18 15 -41
21 -23 7 -43 19 -46 26 -3 7 -11 13 -19 13 -8 0 -40 8 -71 19 -32 10 -97 29
-145 42 -82 22 -110 41 -90 61 4 4 23 3 42 -2 18 -5 36 -7 39 -4 9 9 -23 24
-51 24 -16 0 -28 4 -28 9 0 14 55 21 159 21 85 0 135 10 121 23 -3 3 -29 9
-59 13 -57 9 -83 34 -36 34 19 0 26 4 22 14 -3 8 -1 31 4 50 6 23 6 42 0 54
-10 19 -3 38 14 36 6 0 37 -13 70 -29 58 -27 107 -43 210 -69 28 -7 66 -21 85
-31 l35 -18 -24 27 -24 26 83 -31 c46 -16 88 -33 93 -36 6 -4 7 5 3 21 -4 15
-2 26 4 26 5 0 10 -4 10 -9 0 -5 12 -11 28 -15 15 -3 38 -8 52 -12 21 -6 23
-4 13 7 -25 26 -12 27 38 3 28 -14 49 -28 45 -31 -3 -3 -17 2 -31 11 -20 13
-25 14 -25 2 0 -7 11 -17 24 -20 13 -3 32 -9 42 -13 13 -5 15 -3 9 7 -6 9 -4
11 4 5 8 -4 25 1 42 14 32 24 59 27 59 7 0 -8 -15 -17 -37 -21 -21 -3 -45 -15
-53 -26 -13 -17 -20 -18 -43 -10 -20 8 -27 7 -27 -1 0 -7 -8 -3 -19 8 -14 16
-27 19 -57 16 -22 -3 -33 -7 -26 -9 6 -3 12 -11 12 -19 0 -8 3 -14 8 -15 4 0
18 -3 32 -5 14 -3 46 -6 72 -8 25 -2 50 -6 55 -9 4 -2 32 -8 60 -12 75 -10
117 -41 121 -88 2 -27 -1 -39 -12 -43 -10 -4 -16 -18 -16 -35 0 -32 -15 -60
-67 -125 -18 -23 -33 -44 -33 -48 0 -3 62 -6 138 -6 l138 0 11 30 c14 37 38
39 55 3 l13 -28 3192 -3 c2659 -2 3192 0 3187 11 -4 10 3 12 28 9 28 -4 30 -6
13 -13 -11 -4 1655 -8 3703 -8 l3722 -1 0 345 c0 285 -2 345 -14 345 -7 0 -67
-11 -132 -24 -66 -14 -124 -25 -129 -26 -23 -5 -35 1 -35 18 0 21 -29 52 -48
52 -7 0 -12 5 -12 10 0 14 -64 12 -78 -2 -7 -7 -12 -29 -12 -49 l0 -38 -37 6
c-44 6 -48 10 -58 42 -5 15 -3 21 3 17 6 -3 17 1 25 9 9 8 22 15 30 15 8 0 20
13 27 29 10 25 18 29 62 33 27 3 53 10 57 16 7 12 141 43 153 36 4 -3 18 2 30
10 13 8 47 19 77 25 47 10 56 9 72 -5 18 -17 19 -10 19 220 0 131 -4 245 -9
254 -4 9 -11 35 -15 57 -6 36 -5 38 8 21 14 -17 15 -13 15 43 0 33 -5 61 -10
61 -5 0 -9 7 -9 15 0 8 5 15 10 15 6 0 10 10 10 22 0 27 -12 16 -26 -25 l-11
-32 -17 33 c-9 18 -14 37 -11 42 3 6 2 10 -3 10 -6 0 -13 11 -16 25 -3 13 -11
37 -18 52 -6 15 -19 48 -28 73 -11 31 -22 45 -34 45 -10 0 -26 14 -35 31 -16
29 -17 30 -36 12 -18 -18 -18 -19 3 -71 22 -55 40 -141 24 -119 -9 13 -92 7
-92 -8 0 -8 -176 -25 -272 -25 -36 0 -62 -3 -56 -6 5 -4 2 -9 -7 -13 -17 -6
-29 2 -59 44 l-18 25 5 -25 c2 -14 6 -31 8 -39 3 -8 -5 -15 -21 -16 -37 -4
-210 -54 -239 -69 -37 -19 -102 -39 -108 -33 -2 3 8 12 24 21 28 15 27 15 -29
12 -38 -3 -63 1 -75 10 -27 20 -34 17 -28 -13 3 -16 2 -22 -1 -15 -3 6 -9 10
-14 7 -4 -3 -11 10 -14 28 -3 17 -22 49 -41 70 -19 21 -35 42 -35 47 0 15 -51
70 -60 65 -5 -3 -14 5 -21 17 -19 37 -52 68 -72 68 -13 0 -29 24 -57 84 -21
46 -49 91 -62 100 -22 16 -101 22 -131 11 -10 -4 -13 -22 -11 -65 1 -46 -2
-60 -12 -60 -8 0 -14 3 -14 8 0 4 -25 23 -55 42 -30 19 -58 45 -61 57 l-6 22
-444 1 -444 0 6 -26 7 -26 -51 26 c-28 14 -53 26 -56 26 -3 0 -7 -12 -9 -27
l-4 -28 -2 28 -1 27 -1570 0 -1570 0 0 -25 c0 -25 -1 -25 -80 -25 -64 0 -80
-3 -80 -15 0 -8 10 -17 23 -19 56 -12 157 -26 184 -26 17 0 33 -4 35 -9 2 -5
62 -12 133 -16 72 -3 131 -10 133 -16 2 -5 26 -9 53 -9 27 0 49 -4 49 -8 0 -5
43 -9 95 -10 52 -1 111 -6 132 -11 21 -6 56 -14 78 -20 29 -7 42 -7 47 2 6 9
10 9 16 -1 5 -8 42 -15 95 -19 48 -3 84 -9 82 -13 -3 -5 6 -7 20 -6 14 0 25 4
25 9 0 10 38 9 42 -2 2 -4 29 -12 62 -16 47 -5 57 -4 50 7 -6 10 -5 11 7 2 8
-6 46 -14 84 -17 39 -3 83 -8 99 -12 29 -6 56 -9 216 -20 52 -4 101 -9 110
-10 8 -2 52 -4 96 -4 73 -1 82 -3 87 -21 7 -28 -11 -36 -31 -13 -23 25 -47 27
-77 7 -15 -10 -34 -14 -49 -10 -14 3 -37 1 -53 -5 -15 -7 -44 -13 -63 -14 -51
-3 -112 -22 -121 -36 -6 -11 -15 -11 -42 -1 -42 15 -75 15 -116 1 -24 -9 -35
-9 -44 0 -14 14 -50 14 -65 -1 -14 -14 -14 -15 -33 41 -12 35 -22 47 -44 53
-16 4 -35 3 -43 -1 -9 -5 -23 -4 -32 2 -12 7 -30 6 -61 -2 -24 -7 -53 -14 -64
-15 -11 -1 -29 -7 -41 -14 -11 -6 -38 -8 -61 -5 -36 5 -44 2 -77 -32 l-38 -37
-486 1 c-268 0 -552 2 -632 3 -140 3 -145 4 -155 26 -12 27 -36 25 -50 -6 -5
-12 -17 -22 -25 -22 -219 -4 -220 -4 -220 15 0 9 -12 20 -26 25 -34 13 -34 13
-34 -10 0 -11 -6 -23 -12 -25 -28 -9 -168 -13 -168 -4 0 5 -7 9 -15 9 -8 0
-15 -4 -15 -9 0 -6 -19 -7 -42 -4 -60 8 -75 8 -333 1 -126 -3 -298 -3 -381 1
-83 3 -174 4 -202 3 l-52 -4 0 -83 c0 -98 9 -153 21 -133 7 10 9 10 9 1 0 -8
12 -12 28 -12 23 2 24 2 4 6 -12 2 -20 8 -18 12 5 8 458 6 496 -2 14 -3 124
-9 245 -12 121 -3 245 -8 275 -11 68 -7 240 -14 428 -17 135 -2 142 -2 142 17
0 18 1 18 18 3 10 -10 35 -17 55 -17 19 0 47 -4 61 -10 31 -11 36 -34 6 -25
-11 4 -20 2 -20 -4 0 -6 14 -11 31 -11 17 0 28 4 24 10 -3 5 0 10 8 10 8 0 17
9 20 20 3 11 10 20 17 20 7 0 9 -8 5 -20 -7 -22 10 -28 19 -7 5 9 7 9 12 -1 5
-10 12 -8 31 10 23 22 25 22 37 5 7 -9 23 -17 35 -17 11 0 21 -5 21 -10 0 -6
-12 -10 -27 -10 -33 1 -105 -7 -183 -19 -64 -10 -70 -8 -63 19 6 24 -24 29
-33 5 -6 -15 -65 -22 -63 -8 4 22 -3 31 -18 27 -20 -4 -187 -14 -314 -18 -48
-2 -91 -6 -96 -9 -10 -6 -280 8 -369 19 -44 5 -55 3 -72 -14 -17 -17 -34 -21
-84 -21 -95 0 -364 17 -531 34 -81 8 -151 15 -155 15 -4 0 -5 -27 -4 -59 4
-71 -11 -66 217 -81 206 -14 202 -13 203 -50 1 -35 7 -34 -128 -16 -203 28
-270 35 -283 31 -8 -4 -11 -23 -9 -60 2 -30 0 -55 -5 -56 -4 0 -28 -2 -53 -5
-25 -2 -70 -7 -100 -10 -30 -4 -81 -7 -112 -8 -31 0 -54 -4 -52 -8 3 -4 -1 -8
-8 -8 -39 -1 -493 -53 -568 -66 -24 -4 -31 -2 -21 4 8 6 9 11 3 13 -12 5 -20
65 -21 166 -1 68 -2 71 -23 65 -12 -3 -17 -7 -10 -10 7 -2 10 -8 6 -13 -3 -5
0 -9 5 -9 6 0 11 -8 11 -17 -1 -15 -4 -14 -20 6 -25 29 -26 12 -2 -20 10 -13
19 -37 20 -54 l1 -30 -23 27 c-18 20 -23 36 -21 72 1 26 -2 49 -6 52 -11 6
-10 8 -9 -128 1 -70 -3 -108 -9 -108 -6 0 -11 -6 -11 -14 0 -9 -22 -18 -67
-25 -38 -7 -88 -17 -113 -22 -29 -6 -67 -7 -103 -1 -31 5 -59 7 -62 4 -3 -3
-27 -7 -53 -9 -26 -2 -83 -9 -127 -14 -44 -6 -93 -11 -110 -12 -16 0 -33 -5
-37 -11 -5 -8 -8 -7 -8 1 0 11 -17 11 -100 -3 l-36 -6 -23 94 c-13 51 -27 102
-31 113 -7 18 -9 18 -19 -8 -6 -16 -11 -35 -11 -42 0 -39 -23 -115 -35 -115
-8 0 -11 7 -8 19 3 10 -3 33 -12 51 -18 36 -71 176 -86 230 -18 63 -21 67 -29
38 -4 -14 -3 -45 3 -68 8 -29 8 -43 1 -48 -14 -9 -26 -82 -14 -82 5 0 11 8 13
18 3 9 5 -4 6 -30 1 -28 -4 -48 -11 -50 -7 -3 2 -11 20 -19 36 -16 42 -29 13
-29 -10 0 -21 7 -25 15 -6 16 -36 21 -36 7 0 -10 -79 0 -98 12 -7 4 -12 12
-12 17 0 6 -17 36 -39 67 -56 84 -84 129 -123 202 -52 95 -78 142 -98 170 -9
14 -24 39 -32 55 -24 48 -59 109 -69 119 -5 6 -9 23 -9 38 0 25 2 27 20 18 10
-6 46 -13 80 -17 57 -6 85 -23 38 -23 -25 0 -93 -22 -104 -33 -4 -4 14 -7 39
-7 27 0 47 5 47 11 0 6 9 8 20 4 11 -3 20 -3 20 2 0 12 68 15 75 3 3 -6 1 -10
-5 -10 -7 0 -10 -7 -6 -15 4 -10 -1 -15 -14 -15 -13 0 -18 5 -14 15 4 9 0 15
-9 15 -21 0 -31 -17 -15 -23 7 -3 2 -6 -12 -7 -22 0 -23 -2 -8 -11 11 -6 40
-6 80 0 35 4 53 9 41 10 -12 0 -25 5 -28 11 -4 6 49 10 144 9 82 0 161 3 174
6 14 4 38 0 53 -7 18 -9 72 -15 143 -17 63 -2 125 -7 138 -12 14 -5 49 -9 79
-9 49 0 72 -12 42 -22 -7 -3 -6 -7 5 -11 11 -4 17 -1 17 8 0 22 96 21 108 -1
8 -15 11 -15 30 4 13 13 28 19 41 15 14 -3 23 0 27 11 7 19 22 22 20 4 -1 -16
4 -18 55 -18 22 0 38 3 36 8 -8 12 112 13 183 1 52 -8 73 -8 105 4 l39 14 -59
18 c-33 10 -67 24 -75 31 -8 6 -34 15 -57 19 -49 8 -52 13 -20 43 21 20 29 21
78 13 104 -18 274 -33 329 -30 47 3 55 7 58 25 2 16 10 22 30 22 14 0 28 5 30
11 2 6 25 11 50 11 61 1 123 15 133 31 4 8 35 15 73 17 36 2 66 8 66 13 0 5
10 9 23 9 12 0 35 7 51 15 15 8 42 16 60 16 l31 1 -30 8 -30 8 30 2 c17 1 24
4 18 7 -20 7 -15 21 10 29 28 10 33 11 85 12 l42 2 0 71 0 70 -115 -2 c-87 -2
-115 -5 -115 -15 0 -10 -14 -12 -57 -8 -210 17 -448 21 -1523 21 -1011 0
-1197 -3 -1155 -14 28 -7 64 -13 80 -14 17 0 24 -3 18 -6 -19 -7 -16 -23 5
-24 26 -1 -49 -27 -80 -28 -28 -1 -38 -16 -16 -23 8 -3 3 -11 -13 -21 -25 -17
-142 -30 -244 -28 -46 1 -49 0 -31 -14 22 -17 76 -20 76 -5 0 15 22 12 68 -10
22 -11 50 -20 62 -20 11 0 23 -7 26 -15 4 -8 13 -15 22 -15 11 0 13 -3 5 -11
-15 -15 -286 -28 -456 -20 -94 4 -152 2 -159 -4 -8 -7 -9 -5 -5 8 4 9 2 17 -3
17 -6 0 -10 -4 -10 -10 0 -5 -9 -2 -20 7 -24 21 -25 41 -4 71 24 34 15 66 -20
70 -20 3 -32 -3 -44 -20 -9 -13 -16 -26 -14 -30 4 -13 -46 -9 -60 5 -7 7 -17
15 -23 16 -29 9 -35 15 -35 30 -1 27 -34 63 -53 55 -9 -3 -14 -11 -10 -17 3
-6 1 -7 -5 -3 -6 4 -9 13 -5 21 3 9 -1 15 -11 15 -8 0 -20 9 -26 20 -8 15 -21
20 -50 20 -22 0 -40 -3 -40 -7 0 -5 -1 -179 -1 -388 0 -247 3 -381 10 -383 6
-2 7 -12 2 -25 -5 -12 -12 -50 -16 -84 -4 -35 -11 -63 -17 -63 -8 0 -51 -17
-173 -70 -11 -5 -46 -20 -77 -34 -31 -14 -62 -26 -67 -26 -6 0 -11 -4 -11 -9
0 -5 -13 -11 -30 -15 -17 -3 -30 -12 -30 -21 0 -8 -12 -18 -27 -21 -58 -14
-158 -73 -176 -103 -10 -17 -15 -31 -11 -31 3 0 1 -6 -5 -13 -6 -8 -8 -16 -5
-19 7 -7 -44 -43 -73 -52 -19 -6 -23 -4 -23 16 0 13 -6 32 -12 41 -11 15 -17
16 -46 5 -33 -13 -33 -14 -27 -60 6 -41 4 -47 -8 -42 -18 7 -43 -31 -27 -41
14 -9 12 -35 -2 -35 -22 0 -44 19 -32 27 22 16 25 47 7 80 -13 25 -22 31 -37
27 -21 -7 -46 -28 -46 -39 0 -10 -34 -40 -61 -54 -31 -15 -77 1 -61 22 5 7 12
20 15 30 5 13 1 17 -18 17 -16 0 -25 -6 -25 -15 0 -8 -5 -15 -11 -15 -6 0 -20
-11 -31 -25 -12 -16 -30 -25 -47 -25 -14 0 -35 -6 -46 -14 -11 -7 -39 -16 -61
-19 -23 -4 -54 -14 -70 -22 -16 -8 -37 -15 -47 -15 -10 0 -21 -8 -24 -18 -8
-22 -20 -30 -65 -42 -38 -11 -49 -24 -25 -33 28 -10 -7 -19 -85 -22 -46 -1
-83 -3 -83 -5 0 -1 -21 -3 -47 -4 -29 -2 -45 1 -41 7 7 12 -16 27 -44 27 -14
0 -23 -6 -23 -15 0 -9 -6 -12 -17 -8 -11 4 -14 3 -9 -6 6 -9 3 -9 -13 1 -30
18 -30 100 0 121 15 11 17 16 7 20 -9 4 -7 6 5 6 13 1 17 9 16 34 -1 30 -1 30
-8 7 l-8 -25 -5 25 -5 25 -2 -26 c0 -14 -7 -34 -15 -44 -14 -19 -15 -19 -35
-1 -12 11 -21 15 -21 11 0 -5 -6 -3 -12 3 -10 10 -10 15 2 22 13 8 12 10 -2
10 -16 0 -19 -4 -18 -25 0 -3 -5 -11 -12 -18 -10 -11 -15 -11 -30 2 -19 17
-24 41 -8 41 6 0 9 3 8 8 -2 8 12 72 17 72 1 0 27 -10 56 -23 30 -12 61 -22
69 -22 20 0 50 38 50 62 0 11 10 39 22 64 21 42 22 43 29 19 4 -14 8 -56 9
-95 l2 -70 14 45 c8 25 15 57 16 73 1 15 7 32 14 38 8 6 11 15 8 20 -3 5 0 17
6 26 9 16 10 15 5 -4 -4 -13 -2 -23 3 -23 13 0 70 74 97 127 25 51 91 133 105
133 5 0 12 -15 15 -32 11 -61 13 -73 14 -80 1 -5 8 -8 16 -8 8 0 15 -3 15 -7
1 -5 12 -21 26 -38 15 -16 24 -23 21 -15 -4 13 8 14 77 11 44 -2 83 -5 85 -7
2 -2 -4 -13 -14 -24 -14 -15 -31 -20 -72 -20 -30 0 -52 4 -49 8 3 5 -1 9 -9 9
-15 0 -13 -8 27 -84 15 -28 32 -54 38 -58 5 -3 10 -19 10 -34 0 -28 0 -28 45
-20 25 5 54 13 64 19 11 5 29 10 40 10 12 0 21 6 21 13 0 7 12 14 28 15 42 3
96 23 105 38 11 20 66 46 78 38 7 -4 9 1 4 15 -5 17 -2 21 14 21 12 0 22 5 22
10 1 6 3 15 4 20 1 6 3 14 4 20 0 5 19 13 41 16 52 8 52 24 -1 24 -24 0 -38 4
-34 10 3 6 22 10 41 10 24 0 34 5 34 15 0 10 -11 15 -35 15 -41 0 -77 29 -64
52 4 8 6 23 4 34 -2 10 -4 22 -4 25 -1 11 -144 17 -163 7 -13 -6 -18 -21 -18
-47 0 -26 -5 -41 -16 -45 -11 -4 -14 -1 -9 13 24 76 45 272 45 423 0 17 7 29
18 32 28 9 56 72 53 119 -4 56 -5 37 4 270 l7 207 -38 -1 c-22 -1 -52 -5 -69
-9 -29 -7 -30 -8 -4 -9 24 -1 27 -5 26 -41 0 -22 -4 -40 -9 -40 -4 0 -8 -7 -8
-15 0 -8 4 -15 9 -15 5 0 8 -39 7 -87 -1 -75 -4 -88 -19 -91 -14 -3 -16 0 -7
22 7 21 6 26 -5 26 -10 0 -16 12 -17 38 -1 20 -2 44 -4 52 -1 8 -2 50 -3 93
-1 68 -3 77 -20 77 -16 0 -19 -10 -23 -72 -3 -40 -8 -81 -12 -90 -6 -13 -4
-18 8 -18 9 0 16 -7 16 -15 0 -8 -9 -15 -20 -15 -11 0 -20 -4 -20 -10 0 -5 8
-10 18 -10 10 0 19 -6 20 -12 5 -40 23 -145 27 -155 2 -7 -1 -13 -8 -13 -8 0
-8 -3 2 -9 11 -7 11 -9 0 -14 -11 -3 -9 -8 6 -20 17 -13 18 -19 8 -36 -16 -25
-17 -45 -3 -36 6 3 10 2 10 -4 0 -18 -19 -22 -40 -9 -23 15 -27 33 -5 24 9 -3
15 0 15 9 0 21 -38 19 -43 -2 -4 -14 -5 -12 -6 5 -1 13 5 22 14 22 21 0 19 18
-2 23 -17 4 -17 5 0 6 25 2 21 19 -5 24 l-23 4 23 2 c12 0 22 6 22 11 0 6 -12
9 -27 8 -23 -2 -29 2 -31 20 -2 15 -9 22 -20 20 -13 -2 -17 4 -17 24 1 21 -2
25 -13 16 -10 -9 -12 -8 -10 3 2 9 -4 13 -14 11 -19 -3 -23 6 -10 23 8 12 32
13 50 2 8 -6 12 -2 12 11 0 15 -7 19 -32 19 -18 -1 -38 -8 -45 -17 -16 -19
-17 -5 -2 23 14 26 20 177 8 177 -6 0 -5 8 1 19 21 41 13 50 -44 50 l-54 -1
-4 -424 c-3 -342 -6 -426 -17 -436 -12 -11 -13 -10 -8 5 4 9 2 17 -4 17 -7 0
-9 10 -5 26 5 17 3 23 -4 19 -5 -3 -10 2 -10 12 0 15 -2 16 -11 3 -7 -10 -8
27 -5 125 3 77 6 157 6 178 0 23 4 36 10 32 6 -3 10 -1 10 4 0 6 -4 11 -9 11
-10 0 -16 142 -13 318 1 110 1 112 -21 112 -22 0 -22 -1 -22 -145 0 -86 -4
-149 -10 -153 -12 -8 -12 -79 -1 -105 5 -10 3 -23 -4 -32 -9 -11 -9 -15 -1
-15 16 0 12 -69 -6 -98 -8 -13 -12 -27 -8 -30 3 -4 10 0 15 8 7 11 10 2 10
-28 0 -32 3 -41 13 -36 7 5 6 0 -3 -11 -12 -14 -12 -19 -2 -23 10 -3 10 -7 1
-18 -8 -10 -8 -14 0 -14 17 0 13 -31 -6 -45 -13 -10 -14 -16 -6 -26 5 -8 9
-34 7 -59 -4 -43 -3 -46 23 -48 15 -1 30 -8 34 -14 7 -11 6 -118 -1 -125 -3
-3 -7 -17 -10 -35 -1 -7 -7 3 -14 22 -8 19 -11 38 -9 43 2 4 -1 7 -6 7 -14 0
-14 47 0 56 7 4 1 16 -17 32 -17 17 -29 22 -32 14 -4 -13 -81 -37 -90 -28 -3
3 9 9 26 12 18 4 32 11 32 16 0 5 -4 7 -9 4 -4 -3 -17 4 -27 16 -17 19 -17 21
-1 15 9 -4 17 -2 17 2 0 9 -24 21 -41 21 -5 0 -9 -14 -9 -30 0 -27 -3 -30 -27
-30 -16 0 -43 -2 -60 -6 -31 -6 -33 -4 -33 20 0 14 5 26 10 26 6 0 10 9 10 20
0 17 7 20 41 20 32 0 40 -3 35 -15 -6 -16 9 -21 19 -6 3 5 -5 21 -19 34 -19
19 -28 22 -42 14 -17 -9 -17 -8 1 13 18 20 27 22 78 17 41 -4 63 -11 72 -24 7
-10 16 -15 20 -12 3 4 0 13 -8 20 -21 22 -30 69 -15 86 6 8 12 39 13 69 0 47
-2 54 -20 55 -17 1 -16 2 5 9 25 8 25 8 2 9 -13 1 -20 5 -17 11 4 6 10 8 15 5
5 -3 11 -1 15 5 3 5 -1 10 -9 10 -9 0 -16 5 -16 10 0 6 5 10 11 10 8 0 8 5 -1
15 -10 12 -10 15 1 15 11 0 11 2 2 8 -15 10 -25 162 -12 183 6 10 9 10 9 2 0
-7 9 -13 21 -13 13 0 19 5 15 13 -3 6 -9 20 -12 30 -4 9 -11 17 -18 17 -6 0 0
6 13 13 33 16 37 34 9 42 -13 5 -24 3 -26 -4 -5 -15 -21 -14 -18 2 2 6 8 23
13 37 l10 25 7 -23 c6 -19 10 -21 22 -11 24 20 16 38 -18 41 -32 3 -33 5 -32
46 l0 42 -67 0 -68 0 -7 -37 c-14 -83 -20 -98 -40 -98 -17 0 -19 6 -15 68 2
51 0 67 -10 67 -10 0 -14 -14 -12 -52 0 -29 -1 -39 -3 -23 -9 64 -14 75 -34
75 -17 0 -20 -7 -20 -42 -1 -24 -7 -56 -15 -73 -13 -29 -13 -27 -14 43 l-1 72
-39 0 -40 0 -3 -47 c-3 -45 -5 -48 -32 -51 l-29 -4 5 51 c3 28 2 51 -2 51 -7
0 -20 -221 -20 -350 0 -124 -9 -170 -36 -182 -13 -6 -24 -18 -24 -25 0 -8 -5
-13 -12 -11 -21 7 -19 24 4 36 21 10 20 10 -9 5 -21 -3 -33 -1 -33 6 0 6 -10
11 -21 11 -18 0 -19 2 -9 15 17 20 37 19 49 -2 9 -16 10 -16 11 -1 0 20 -26
48 -45 48 -17 0 -38 36 -30 50 3 5 -1 7 -9 4 -16 -6 -32 29 -21 46 3 5 2 10
-4 10 -5 0 -15 16 -21 35 -6 19 -25 49 -42 65 -27 28 -28 30 -8 30 12 0 18 -4
15 -10 -3 -5 -2 -10 3 -10 4 0 16 -16 25 -35 9 -20 24 -38 32 -41 8 -4 13 -9
10 -13 -2 -4 3 -8 11 -8 8 0 13 6 10 14 -10 25 3 13 18 -17 9 -20 10 -28 3
-24 -7 3 -3 -2 7 -10 18 -14 15 -21 -7 -17 -5 1 -6 -3 -2 -9 3 -6 10 -8 15 -5
4 3 20 -23 34 -58 24 -56 26 -58 20 -22 -12 79 -13 120 -3 131 7 8 6 14 -1 19
-16 10 -12 71 6 86 9 7 14 22 11 35 -2 13 3 26 15 33 28 18 22 29 -34 57 -29
15 -65 35 -80 45 -14 11 -33 19 -41 19 -8 0 -18 7 -21 16 -4 11 -14 15 -30 12
-17 -4 -23 -1 -19 9 3 7 -2 13 -11 13 -9 0 -16 -4 -16 -10 0 -5 -6 -10 -14
-10 -7 0 -26 -6 -41 -14 l-28 -15 24 -5 c13 -3 51 -7 84 -8 62 -3 69 -11 54
-55 -2 -6 1 -11 6 -11 6 0 9 4 7 10 -1 5 2 7 7 4 17 -11 8 -48 -10 -43 -12 3
-19 -3 -23 -19 -6 -23 -11 -24 -81 -24 l-75 0 0 -44 c0 -25 -5 -48 -11 -51 -7
-5 -9 30 -5 117 2 67 2 108 -1 90 -4 -29 -7 -33 -26 -27 -12 3 -26 6 -32 6
-73 -7 -92 -7 -106 0 -9 5 -21 3 -27 -3 -9 -9 -12 1 -12 40 0 43 -3 52 -17 53
-10 0 -27 3 -38 5 -11 3 -60 7 -110 9 -49 1 -72 1 -50 -1 96 -10 125 -16 125
-27 0 -7 -12 -38 -27 -69 l-27 -58 -51 0 c-65 1 -237 24 -254 34 -12 8 -11 35
6 104 5 21 2 22 -44 22 -27 0 -53 -3 -56 -7z m1850 -65 c-2 -13 -4 -5 -4 17
-1 22 1 32 4 23 2 -10 2 -28 0 -40z m2558 42 c3 -5 1 -10 -4 -10 -6 0 -11 5
-11 10 0 6 2 10 4 10 3 0 8 -4 11 -10z m-3528 -16 c-3 -3 -12 -4 -19 -1 -8 3
-5 6 6 6 11 1 17 -2 13 -5z m4983 -8 c19 -3 73 -8 119 -12 47 -3 94 -10 105
-15 18 -7 -45 -7 -323 1 -8 0 -4 8 10 20 13 10 31 17 39 15 8 -2 31 -6 50 -9z
m6853 -35 c26 -19 47 -43 47 -53 0 -25 -3 -24 -65 23 -34 25 -55 49 -55 61 0
22 5 20 73 -31z m-11358 -60 c-15 -15 -15 -14 -6 12 6 16 12 43 13 60 1 24 2
21 5 -12 3 -31 0 -49 -12 -60z m472 2 c-2 -16 -4 -3 -4 27 0 30 2 43 4 28 2
-16 2 -40 0 -55z m2756 41 c-5 -13 -2 -15 15 -9 18 5 22 2 22 -14 0 -11 7 -24
16 -29 14 -8 14 -12 3 -30 -8 -12 -19 -22 -25 -22 -17 0 -26 43 -11 52 8 5 5
8 -8 8 -32 0 -46 19 -32 41 14 23 29 25 20 3z m-2886 -16 c-3 -8 -6 -5 -6 6
-1 11 2 17 5 13 3 -3 4 -12 1 -19z m4708 10 c82 -1 96 -2 55 -7 -30 -3 -54
-10 -52 -16 4 -16 -60 -29 -80 -16 -10 6 -40 11 -66 11 -27 0 -52 3 -55 7 -12
11 37 32 63 26 14 -3 75 -5 135 -5z m495 -7 c0 -3 -22 -14 -50 -24 -39 -14
-48 -21 -43 -35 6 -14 4 -15 -8 -5 -8 6 -43 13 -79 15 -70 5 -170 28 -170 40
0 8 78 12 243 14 59 1 107 -2 107 -5z m-5680 -18 c0 -24 -25 -105 -43 -140
-14 -27 -15 -24 -16 57 -1 86 5 100 42 100 10 0 17 -7 17 -17z m627 -15 c-3
-7 -5 -2 -5 12 0 14 2 19 5 13 2 -7 2 -19 0 -25z m1449 5 c-10 -10 -19 5 -10
18 6 11 8 11 12 0 2 -7 1 -15 -2 -18z m1084 23 c0 -2 -7 -6 -15 -10 -8 -3 -15
-1 -15 4 0 6 7 10 15 10 8 0 15 -2 15 -4z m-3677 -12 c31 -6 37 -10 37 -32 0
-24 -1 -25 -57 -18 -31 4 -59 8 -61 11 -2 2 -1 13 3 24 7 22 18 24 78 15z
m6260 -1 c-7 -2 -21 -2 -30 0 -10 3 -4 5 12 5 17 0 24 -2 18 -5z m-5962 -21
c-7 -2 -18 1 -23 6 -8 8 -4 9 13 5 13 -4 18 -8 10 -11z m3332 11 c-7 -2 -19
-2 -25 0 -7 3 -2 5 12 5 14 0 19 -2 13 -5z m8464 -6 c4 -7 27 -25 51 -40 23
-15 42 -34 42 -42 0 -20 -12 -19 -43 5 -14 11 -28 20 -31 20 -14 0 -46 36 -46
52 0 21 15 24 27 5z m883 -1 c0 -16 -18 -31 -27 -22 -8 8 5 36 17 36 5 0 10
-6 10 -14z m-12403 -18 c-3 -8 -6 -5 -6 6 -1 11 2 17 5 13 3 -3 4 -12 1 -19z
m573 -33 c0 -14 -6 -25 -13 -25 -8 0 -13 9 -11 23 3 28 2 27 14 27 6 0 10 -11
10 -25z m1720 10 c0 -19 -12 -25 -27 -14 -19 16 -16 25 7 25 11 0 20 -5 20
-11z m879 -1 c2 -2 -21 -4 -53 -4 -37 0 -55 4 -51 10 6 10 92 4 104 -6z m9250
-68 c2 -51 -10 -20 -14 36 -3 41 -2 46 4 23 5 -16 9 -43 10 -59z m-12705 58
c9 -25 2 -26 -17 -4 -13 16 -14 20 -3 20 8 0 17 -7 20 -16z m348 -58 c-7 -28
-14 -81 -18 -118 -4 -52 -9 -68 -21 -68 -25 0 -9 185 20 227 27 40 33 26 19
-41z m355 27 c-3 -10 -5 -4 -5 12 0 17 2 24 5 18 2 -7 2 -21 0 -30z m-72 7 c3
-5 1 -10 -4 -10 -6 0 -11 5 -11 10 0 6 2 10 4 10 3 0 8 -4 11 -10z m-810 -20
c-3 -5 -1 -10 6 -10 7 0 10 -3 6 -6 -9 -9 -28 6 -22 17 4 5 8 9 11 9 3 0 2 -4
-1 -10z m221 -8 c-10 -2 -22 0 -28 6 -6 6 0 7 19 4 21 -5 23 -7 9 -10z m814 9
c0 -17 -12 -41 -20 -41 -4 0 -7 11 -6 25 1 23 26 38 26 16z m-350 -152 l0
-111 -32 6 c-17 3 -33 8 -36 11 -2 2 -1 49 3 104 l7 101 29 0 29 0 0 -111z
m-240 87 c0 -2 -8 -10 -17 -17 -16 -13 -17 -12 -4 4 13 16 21 21 21 13z m609
-269 c6 -16 11 -43 12 -60 0 -21 3 -26 7 -16 13 29 50 69 65 69 22 0 28 -67
17 -193 -6 -61 -11 -125 -12 -142 -2 -39 -18 -62 -29 -43 -5 7 -6 -8 -4 -35 3
-27 1 -47 -5 -47 -6 0 -10 -11 -10 -25 0 -14 -4 -25 -8 -25 -8 0 -9 46 -2 150
4 50 2 55 -17 58 -14 2 -20 8 -16 18 4 10 -3 14 -27 14 l-33 0 7 148 c4 81 8
168 9 195 1 26 4 47 7 47 3 0 5 30 5 68 0 118 10 101 16 -28 4 -69 12 -138 18
-153z m4739 266 c-10 -2 -28 -2 -40 0 -13 2 -5 4 17 4 22 1 32 -1 23 -4z
m-4488 -30 c0 -27 -15 -23 -22 5 -3 11 0 19 8 19 8 0 14 -11 14 -24z m1244
-17 c-3 -9 -10 -16 -15 -16 -5 0 -4 9 3 20 14 22 21 20 12 -4z m52 -2 c2 -28
1 -28 -15 4 -9 17 -9 22 1 22 7 0 14 -12 14 -26z m788 6 c13 -13 -12 -32 -34
-27 -9 2 -21 -2 -28 -10 -11 -11 -10 -14 3 -19 27 -11 169 5 237 25 35 11 93
23 129 26 54 6 69 4 82 -10 21 -21 9 -34 -48 -54 -22 -7 -53 -19 -70 -26 -16
-7 -38 -16 -48 -19 -12 -4 -17 -14 -15 -28 2 -17 12 -24 41 -30 21 -4 48 -14
59 -22 20 -14 20 -14 0 -25 -26 -14 -36 -60 -13 -63 61 -5 69 -4 64 9 -3 7 0
13 7 13 9 0 11 10 7 30 -4 17 -2 30 3 30 6 0 10 -26 10 -57 1 -57 1 -58 15
-28 16 36 19 28 5 -11 -15 -39 -22 -134 -10 -134 6 0 10 7 10 15 0 8 3 15 8
15 4 0 6 -28 4 -62 -1 -35 1 -83 7 -108 8 -41 9 -37 10 47 1 57 5 94 12 99 9
5 10 -1 5 -22 -7 -28 -7 -28 8 -9 12 15 15 16 16 5 0 -13 1 -13 10 0 7 11 10
11 10 2 0 -7 5 -10 10 -7 6 3 10 0 10 -8 0 -10 8 -14 23 -11 12 2 16 1 9 -2
-10 -5 -10 -9 -1 -21 11 -12 8 -14 -16 -11 -18 2 -29 -2 -32 -12 -4 -13 -3
-13 6 0 8 12 12 10 19 -11 12 -30 38 -53 51 -45 5 4 16 -2 23 -12 7 -11 21
-18 30 -16 10 1 20 -1 23 -6 2 -4 -5 -7 -17 -6 -12 0 -23 -4 -25 -10 -2 -6 4
-11 14 -11 43 0 46 -2 32 -19 -11 -13 -9 -15 17 -9 23 4 25 3 9 -4 -30 -14
-58 -13 -49 2 5 8 2 8 -9 -2 -16 -13 -22 -8 -18 13 1 5 -4 13 -11 18 -11 6
-11 10 0 16 10 7 10 11 -3 22 -12 10 -18 10 -32 -1 -14 -12 -16 -12 -12 1 3 8
-5 25 -17 36 -19 19 -24 20 -29 7 -3 -9 -3 -18 0 -21 3 -3 5 0 5 7 0 18 25 -9
34 -36 12 -37 -2 -49 -54 -52 -39 -1 -50 1 -50 13 0 8 -4 18 -10 21 -6 3 -7
-1 -4 -9 5 -13 -2 -16 -35 -16 -23 0 -41 5 -41 10 0 6 11 10 25 10 16 0 25 6
25 15 0 10 -10 15 -30 15 -25 0 -30 -4 -30 -23 l0 -23 -82 12 c-46 7 -118 16
-160 20 -43 3 -78 9 -78 13 0 3 -19 6 -42 7 -24 0 -59 3 -78 7 -19 3 -57 6
-85 6 -27 1 -45 5 -38 9 6 4 -12 7 -40 7 -80 0 -341 35 -348 47 -4 5 -42 14
-85 19 -135 15 -129 12 -127 72 1 28 8 71 17 95 8 24 11 40 6 37 -22 -13 -18
15 5 33 14 11 25 25 25 31 0 6 4 11 9 11 5 0 7 -10 4 -21 -4 -16 -2 -20 8 -17
8 3 13 13 13 22 -1 9 2 16 7 16 5 0 9 11 9 25 0 17 6 25 18 25 14 0 15 2 2 10
-10 6 -11 10 -2 10 6 0 12 7 12 15 0 8 5 15 11 15 6 0 3 7 -5 16 -9 8 -16 21
-15 27 0 9 2 8 6 0 6 -15 83 -18 83 -3 0 6 14 10 30 10 28 0 35 8 31 37 -3 19
38 25 94 14 39 -8 80 -5 185 11 74 11 137 22 140 25 8 9 123 -6 134 -17z
m8698 -20 c-6 -45 -18 -45 -14 1 2 21 7 37 11 34 4 -2 6 -18 3 -35z m162 24
c3 -8 2 -12 -4 -9 -6 3 -10 10 -10 16 0 14 7 11 14 -7z m-11863 -87 c-13 -13
-15 31 -3 60 5 14 8 10 10 -16 2 -18 -1 -38 -7 -44z m-34 41 c-3 -8 -6 -5 -6
6 -1 11 2 17 5 13 3 -3 4 -12 1 -19z m954 -19 c-6 -24 -9 -28 -10 -12 -1 24 9
56 16 50 2 -3 0 -20 -6 -38z m1292 16 c4 3 5 2 2 -1 -2 -4 0 -15 6 -26 10 -18
8 -18 -11 -8 -11 6 -18 15 -15 21 4 5 2 9 -3 9 -6 0 -13 8 -16 17 -6 16 -6 16
12 0 10 -9 22 -15 25 -12z m-1503 5 c0 -5 -4 -10 -10 -10 -5 0 -10 5 -10 10 0
6 5 10 10 10 6 0 10 -4 10 -10z m42 -22 c-7 -7 -12 -8 -12 -2 0 14 12 26 19
19 2 -3 -1 -11 -7 -17z m1502 7 c-4 -8 -11 -12 -16 -9 -6 4 -5 10 3 15 19 12
19 11 13 -6z m-1477 -27 c-3 -8 -6 -5 -6 6 -1 11 2 17 5 13 3 -3 4 -12 1 -19z
m-1308 6 c22 -5 30 -11 27 -21 -3 -8 -10 -44 -16 -81 -19 -127 -20 -130 -40
-135 -22 -6 -28 -27 -7 -27 18 0 15 -63 -3 -73 -9 -4 -5 -6 13 -4 19 3 27 0
27 -11 0 -13 -12 -14 -78 -9 -104 8 -112 12 -112 54 0 20 -4 32 -10 28 -6 -4
-10 35 -10 110 0 111 8 150 34 167 14 9 132 10 175 2z m676 -34 c0 -39 -15
-54 -31 -28 -4 7 -3 8 4 4 8 -5 12 2 12 22 0 23 7 42 14 42 1 0 1 -18 1 -40z
m535 5 c0 -5 -5 -3 -10 5 -5 8 -10 20 -10 25 0 6 5 3 10 -5 5 -8 10 -19 10
-25z m-600 -4 c0 -22 -4 -29 -17 -27 -9 2 -19 9 -21 17 -3 11 -1 11 7 -1 9
-13 11 -12 11 6 0 19 8 34 17 34 2 0 3 -13 3 -29z m673 -5 c8 3 13 -6 15 -21
1 -14 -3 -25 -8 -25 -6 0 -10 -11 -10 -24 0 -21 5 -25 30 -24 23 1 27 4 19 14
-6 8 -6 14 0 18 5 4 12 -2 16 -13 8 -26 33 -34 51 -16 20 20 24 19 24 -5 0
-18 -7 -20 -56 -20 -66 0 -94 13 -95 43 0 21 -1 21 -9 2 -7 -16 -9 -17 -9 -3
-1 9 4 20 9 23 8 5 8 11 0 20 -7 8 -8 24 -3 42 7 25 8 26 11 6 2 -12 9 -20 15
-17z m12597 24 c0 -5 -2 -10 -4 -10 -3 0 -8 5 -11 10 -3 6 -1 10 4 10 6 0 11
-4 11 -10z m-16681 -9 c11 -7 8 -12 -13 -25 -83 -51 -76 -49 -76 -22 0 17 9
28 33 40 38 18 38 18 56 7z m8306 -11 c-3 -5 -10 -10 -16 -10 -5 0 -9 5 -9 10
0 6 7 10 16 10 8 0 12 -4 9 -10z m1576 -15 c1 -5 1 -13 0 -17 0 -5 17 -8 39
-8 22 0 40 -4 40 -8 0 -5 -20 -9 -45 -10 -32 0 -48 5 -54 16 -9 16 -10 16 -16
0 -6 -14 -18 -16 -76 -13 -41 3 -69 0 -69 -5 0 -15 -17 -12 -34 6 -22 21 -22
52 -1 34 9 -8 15 -8 15 -2 0 6 18 10 40 10 23 0 43 1 45 3 8 9 115 3 116 -6z
m1764 3 c4 -3 -35 -6 -87 -5 -61 0 -79 2 -53 6 51 8 132 7 140 -1z m95 1 c0
-5 -14 -9 -31 -9 -16 0 -28 3 -26 8 7 10 57 12 57 1z m87 5 c-3 -3 -12 -4 -19
-1 -8 3 -5 6 6 6 11 1 17 -2 13 -5z m-2369 -11 c-10 -2 -26 -2 -35 0 -10 3 -2
5 17 5 19 0 27 -2 18 -5z m1985 0 c-7 -2 -19 -2 -25 0 -7 3 -2 5 12 5 14 0 19
-2 13 -5z m-7411 -25 c-7 -7 -12 -8 -12 -2 0 14 12 26 19 19 2 -3 -1 -11 -7
-17z m8075 16 c-3 -3 -12 -4 -19 -1 -8 3 -5 6 6 6 11 1 17 -2 13 -5z m5343 -4
c0 -5 -5 -10 -11 -10 -5 0 -7 5 -4 10 3 6 8 10 11 10 2 0 4 -4 4 -10z m-7363
-22 c-3 -8 -6 -5 -6 6 -1 11 2 17 5 13 3 -3 4 -12 1 -19z m43 1 c0 -5 -7 -9
-15 -9 -8 0 -15 7 -15 15 0 9 6 12 15 9 8 -4 15 -10 15 -15z m-4596 -4 c6 -17
4 -18 -18 -9 -20 8 -21 24 -2 24 8 0 16 -7 20 -15z m4646 5 c0 -5 -2 -10 -4
-10 -3 0 -8 5 -11 10 -3 6 -1 10 4 10 6 0 11 -4 11 -10z m-7093 -22 c0 -13 -1
-17 -4 -10 -3 6 -11 12 -19 12 -9 0 -12 5 -9 10 11 18 31 10 32 -12z m388 2
c-2 -11 0 -20 6 -20 5 0 8 -18 7 -40 -3 -34 -6 -40 -23 -38 -15 2 -19 9 -17
28 2 14 8 26 12 28 10 4 0 45 -14 54 -6 5 -2 8 11 8 17 0 21 -5 18 -20z m7533
13 c-10 -2 -28 -2 -40 0 -13 2 -5 4 17 4 22 1 32 -1 23 -4z m190 0 c-27 -2
-69 -2 -95 0 -27 2 -5 3 47 3 52 0 74 -1 48 -3z m140 0 c-15 -2 -42 -2 -60 0
-18 2 -6 4 27 4 33 0 48 -2 33 -4z m-8208 -13 c0 -5 -7 -10 -16 -10 -8 0 -12
5 -9 10 3 6 10 10 16 10 5 0 9 -4 9 -10z m46 -17 c16 -22 17 -33 4 -33 -5 0
-10 7 -10 16 0 8 -4 13 -9 10 -5 -3 -11 1 -15 9 -8 21 14 19 30 -2z m-3626 -2
c-8 -5 -26 -12 -40 -15 -24 -7 -24 -6 -6 8 11 9 29 16 40 16 17 -1 18 -2 6 -9z
m273 -13 c10 2 14 8 10 15 -5 9 -3 9 8 1 8 -6 19 -13 25 -15 8 -3 9 -12 3 -27
l-9 -23 -40 22 c-22 13 -40 30 -40 38 1 14 2 14 13 1 7 -9 20 -14 30 -12z
m3317 -3 c0 -1 -6 -7 -13 -13 -10 -8 -13 -6 -14 8 -1 13 3 17 13 13 8 -3 14
-6 14 -8z m7395 5 c-27 -12 -35 -12 -35 0 0 6 12 10 28 9 24 0 25 -1 7 -9z
m235 -1 c0 -4 -13 -7 -30 -7 -16 1 -30 5 -30 10 0 4 14 7 30 6 17 -1 30 -5 30
-9z m60 0 c0 -6 5 -7 13 -2 15 10 66 13 71 4 2 -3 65 -6 140 -6 75 0 131 -2
126 -3 -6 -2 -8 -8 -4 -13 5 -9 -46 -13 -136 -11 -25 1 -74 1 -110 1 -83 1
-120 9 -120 27 0 8 5 14 10 14 6 0 10 -5 10 -11z m908 -14 c6 -14 20 -25 29
-26 10 -1 2 -5 -17 -9 -19 -5 -36 -6 -37 -2 -2 4 -66 7 -143 6 -109 0 -140 3
-140 13 0 15 117 18 188 4 23 -5 42 -5 42 -1 0 4 11 5 25 2 20 -3 25 0 25 17
0 28 14 27 28 -4z m-8512 -25 c0 -11 -4 -20 -9 -20 -5 0 -6 -12 -2 -27 4 -19
3 -25 -3 -18 -10 10 -15 42 -13 77 1 24 27 12 27 -12z m204 20 c0 -5 -4 -10
-10 -10 -5 0 -10 5 -10 10 0 6 5 10 10 10 6 0 10 -4 10 -10z m3260 -7 c0 -22
-17 -50 -24 -42 -5 5 15 59 22 59 1 0 2 -8 2 -17z m4728 2 c14 -13 -14 -16
-112 -9 -58 4 -106 11 -106 16 0 9 209 3 218 -7z m6011 -75 c0 -19 -3 -16 -14
15 -8 22 -14 49 -14 60 1 28 27 -43 28 -75z m-13829 73 c-1 -29 -15 -53 -31
-53 -14 0 -19 7 -19 30 0 25 4 30 25 30 14 0 25 -3 25 -7z m450 3 c0 -2 -7 -9
-15 -16 -12 -10 -15 -10 -15 4 0 9 7 16 15 16 8 0 15 -2 15 -4z m5743 -3 c-7
-2 -19 -2 -25 0 -7 3 -2 5 12 5 14 0 19 -2 13 -5z m442 -3 c3 -5 2 -10 -4 -10
-5 0 -13 5 -16 10 -3 6 -2 10 4 10 5 0 13 -4 16 -10z m-6015 -15 c0 -8 -2 -15
-4 -15 -2 0 -6 7 -10 15 -3 8 -1 15 4 15 6 0 10 -7 10 -15z m7653 8 c-7 -2
-19 -2 -25 0 -7 3 -2 5 12 5 14 0 19 -2 13 -5z m5491 -65 c23 -79 21 -83 -26
-98 -24 -7 -63 -19 -88 -27 -111 -36 -221 -59 -229 -49 -13 17 -61 114 -61
124 0 5 35 19 78 32 42 12 118 35 167 50 105 34 128 39 136 31 4 -3 14 -31 23
-63z m29 52 c3 -11 1 -18 -4 -14 -5 3 -9 12 -9 20 0 20 7 17 13 -6z m-14113 0
c0 -5 -2 -10 -4 -10 -3 0 -8 5 -11 10 -3 6 -1 10 4 10 6 0 11 -4 11 -10z
m2188 -2 c-3 -7 -13 -15 -24 -17 -16 -3 -17 -1 -5 13 16 19 34 21 29 4z
m10128 -39 c15 -26 -6 -15 -37 18 l-34 36 32 -22 c18 -12 35 -27 39 -32z
m-16136 20 c0 -5 -4 -9 -10 -9 -5 0 -10 7 -10 16 0 8 5 12 10 9 6 -3 10 -10
10 -16z m427 -46 c-3 -10 -5 -2 -5 17 0 19 2 27 5 18 2 -10 2 -26 0 -35z
m3272 31 c2 -2 -9 -4 -25 -5 -25 0 -26 -2 -9 -9 18 -8 18 -9 2 -9 -10 -1 -27
4 -38 10 -15 8 -24 7 -36 -3 -13 -10 -17 -10 -20 0 -3 6 -11 12 -18 12 -8 0
-16 4 -20 10 -6 9 154 4 164 -6z m9266 -4 c3 -5 1 -10 -4 -10 -6 0 -11 5 -11
10 0 6 2 10 4 10 3 0 8 -4 11 -10z m-515 -8 c0 -5 -19 -9 -42 -9 -39 -1 -40 0
-13 7 43 11 55 11 55 2z m347 2 c-3 -3 -12 -4 -19 -1 -8 3 -5 6 6 6 11 1 17
-2 13 -5z m-8033 -131 c-6 -91 -9 -111 -16 -88 -15 53 -14 195 2 205 8 5 16 7
18 5 2 -2 0 -56 -4 -122z m11426 84 c0 -6 -9 -2 -20 8 -11 10 -20 23 -20 28 0
6 9 2 20 -8 11 -10 20 -23 20 -28z m-16820 18 c-7 -9 -15 -13 -19 -10 -3 3 1
10 9 15 21 14 24 12 10 -5z m290 5 c0 -5 -4 -10 -9 -10 -6 0 -13 5 -16 10 -3
6 1 10 9 10 9 0 16 -4 16 -10z m4064 -5 c-4 -8 -11 -15 -16 -15 -6 0 -5 6 2
15 7 8 14 15 16 15 2 0 1 -7 -2 -15z m82 3 c4 -7 3 -8 -4 -4 -7 4 -12 1 -12
-8 0 -9 -5 -16 -10 -16 -7 0 -7 6 0 20 12 23 16 24 26 8z m-4662 -17 c3 -5 -1
-14 -8 -20 -16 -13 -32 2 -21 19 8 12 22 13 29 1z m13049 2 c-7 -2 -19 -2 -25
0 -7 3 -2 5 12 5 14 0 19 -2 13 -5z m1102 -8 c6 -2 -14 -4 -43 -4 -29 -1 -51
3 -48 7 4 7 67 5 91 -3z m4682 -17 c-3 -7 -5 -2 -5 12 0 14 2 19 5 13 2 -7 2
-19 0 -25z m-12010 2 c-1 -13 -8 -20 -23 -20 -12 0 -25 -6 -27 -12 -4 -9 -6
-8 -6 2 -1 22 11 37 34 43 11 2 21 5 22 6 1 0 1 -8 0 -19z m5373 11 c-1 -19
-22 -31 -83 -45 -86 -20 -117 -20 -117 -1 0 8 -4 15 -10 15 -5 0 -10 5 -10 10
0 6 26 11 58 11 31 1 71 5 87 8 38 9 75 10 75 2z m97 3 c-3 -3 -12 -4 -19 -1
-8 3 -5 6 6 6 11 1 17 -2 13 -5z m1296 -9 c-3 -9 -8 -14 -10 -11 -3 3 -2 9 2
15 9 16 15 13 8 -4z m-1648 -16 c17 -1 -21 -7 -84 -15 -98 -12 -118 -12 -136
0 -12 8 -32 16 -46 18 -19 4 113 2 266 -3z m-12138 -21 c-3 -8 -6 -5 -6 6 -1
11 2 17 5 13 3 -3 4 -12 1 -19z m11610 16 c-3 -3 -12 -4 -19 -1 -8 3 -5 6 6 6
11 1 17 -2 13 -5z m-6527 -44 c5 0 10 -5 10 -11 0 -6 -6 -9 -14 -6 -18 7 -15
-85 4 -107 7 -9 10 -19 6 -23 -3 -3 -6 -1 -6 5 0 7 -5 12 -12 12 -6 0 -9 -3
-5 -6 3 -4 -1 -13 -10 -22 -14 -14 -16 -14 -24 1 -5 9 -16 14 -24 11 -8 -4
-15 -1 -15 5 0 6 6 11 13 11 8 0 7 4 -3 10 -11 7 -11 10 -2 10 7 0 11 4 8 9
-3 5 -3 23 0 40 5 22 12 31 26 31 10 0 16 5 13 10 -4 6 -11 8 -16 5 -16 -11
-10 18 9 35 16 16 17 16 24 -2 4 -10 12 -18 18 -18z m6786 20 c29 0 34 -3 32
-24 -2 -22 -7 -24 -83 -30 -44 -4 -118 -13 -165 -20 -88 -14 -154 -11 -144 6
4 7 -9 9 -35 6 -30 -3 -41 0 -41 10 0 11 8 13 30 9 16 -4 52 -2 78 3 27 5 73
10 103 11 61 2 129 19 129 33 0 5 14 6 31 2 17 -3 47 -6 65 -6z m-7012 -21
c-4 -7 -6 -36 -5 -66 1 -30 -2 -52 -7 -49 -5 3 -7 19 -4 36 2 17 0 30 -6 30
-8 0 -8 9 -1 30 6 17 15 30 21 30 5 0 6 -5 2 -11z m7754 -10 c94 -7 172 -16
172 -19 0 -4 -7 -13 -15 -20 -15 -12 -46 -11 -170 5 -16 2 -84 7 -150 12 -66
4 -110 9 -97 11 12 2 34 10 49 17 15 8 29 12 32 10 3 -1 84 -9 179 -16z
m-12548 7 c0 -3 -4 -8 -10 -11 -5 -3 -10 -1 -10 4 0 6 5 11 10 11 6 0 10 -2
10 -4z m5024 -42 c3 -8 2 -12 -4 -9 -6 3 -10 10 -10 16 0 14 7 11 14 -7z m694
-85 c-5 -103 -15 -132 -37 -106 -9 12 -8 24 3 58 8 24 18 68 22 97 11 84 17
60 12 -49z m11856 92 c3 -5 -3 -11 -13 -14 -14 -3 -18 -1 -14 9 6 16 19 18 27
5z m-4661 -10 c41 -1 24 -18 -26 -25 -61 -9 -127 2 -120 21 4 10 19 13 62 9
31 -3 69 -5 84 -5z m-11484 -68 l-2 -58 -7 50 c-7 47 -5 65 6 65 2 0 3 -26 3
-57z m10581 43 c36 -2 117 -10 180 -17 l115 -13 -26 -29 -27 -29 -73 11 c-41
5 -135 15 -209 22 -74 6 -146 15 -160 20 l-25 7 28 1 c15 1 43 10 62 20 20 10
44 17 53 15 9 -1 46 -5 82 -8z m-4807 -13 c-7 -2 -19 -2 -25 0 -7 3 -2 5 12 5
14 0 19 -2 13 -5z m1243 -15 c-1 -27 -19 -34 -36 -13 -8 10 -9 15 -1 15 6 0
11 -4 11 -10 0 -5 5 -10 11 -10 6 0 9 6 6 14 -3 8 -3 17 0 20 10 9 10 8 9 -16z
m-9366 -8 c0 -5 -5 -10 -11 -10 -5 0 -7 5 -4 10 3 6 8 10 11 10 2 0 4 -4 4
-10z m4990 -41 c0 -10 -3 -19 -7 -19 -5 0 -8 11 -8 24 0 13 3 22 8 19 4 -2 7
-13 7 -24z m700 15 c0 -8 -4 -12 -10 -9 -5 3 -10 10 -10 16 0 5 5 9 10 9 6 0
10 -7 10 -16z m330 12 c0 -2 -11 -6 -25 -8 -14 -3 -25 -1 -25 3 0 5 11 9 25 9
14 0 25 -2 25 -4z m637 -28 c-3 -8 -6 -5 -6 6 -1 11 2 17 5 13 3 -3 4 -12 1
-19z m5783 2 c8 -4 51 -11 95 -14 44 -4 130 -13 190 -21 61 -9 153 -20 205
-25 186 -20 175 -17 174 -58 -1 -30 -5 -37 -20 -35 -11 1 -62 7 -114 13 -52 6
-108 12 -125 14 -16 2 -37 6 -45 9 -8 3 -68 11 -133 17 -64 6 -131 15 -148 20
-17 5 -65 12 -107 15 -43 4 -93 11 -112 16 -19 5 -47 9 -62 9 -30 0 -31 2 -22
38 7 23 8 23 108 16 55 -3 108 -10 116 -14z m-7036 -6 c9 -23 8 -24 -14 -24
-11 0 -20 6 -20 13 0 8 -4 7 -10 -3 -6 -9 -10 -10 -10 -3 0 11 26 32 41 33 4
0 10 -7 13 -16z m5465 -72 c-1 -20 -3 -29 -6 -19 -2 9 -8 17 -13 17 -5 0 -11
-8 -13 -17 -2 -10 -4 -4 -4 12 0 17 -4 46 -8 65 l-8 35 27 -28 c19 -21 26 -38
25 -65z m-6034 68 c3 -5 2 -10 -4 -10 -5 0 -13 5 -16 10 -3 6 -2 10 4 10 5 0
13 -4 16 -10z m1394 -13 c9 3 -1 -7 -21 -21 -21 -15 -38 -30 -38 -35 0 -4 -11
-13 -25 -19 -14 -6 -24 -17 -23 -23 3 -13 -43 -42 -52 -32 -3 3 14 22 38 42
47 41 50 48 25 53 -15 3 -14 8 11 31 25 24 30 25 48 12 11 -7 28 -11 37 -8z
m1858 9 c3 -2 11 -54 19 -121 3 -33 3 -57 -1 -53 -5 4 -14 3 -22 -3 -7 -6 -13
-8 -13 -3 0 5 -4 2 -9 -5 -8 -12 -12 -10 -22 11 -12 27 -39 46 -39 28 0 -6 -5
-10 -11 -10 -8 0 -8 4 0 14 18 22 3 45 -30 44 -17 -1 -35 4 -41 10 -7 7 -9 12
-4 12 4 0 1 7 -8 15 -18 19 -11 42 15 50 10 4 19 11 19 16 0 7 27 8 73 3 39
-3 73 -7 74 -8z m-1977 -34 c3 -3 -3 -2 -12 1 -11 4 -15 2 -12 -7 3 -8 -4 -16
-15 -19 -22 -5 -27 7 -15 37 5 13 10 13 27 4 12 -6 24 -13 27 -16z m2108 18
c12 0 22 -4 22 -10 0 -18 -77 -12 -84 6 -5 13 -2 15 16 10 13 -3 33 -6 46 -6z
m1148 -19 c-1 -34 -16 -54 -17 -25 0 18 -1 18 -10 -1 -7 -16 -8 -14 -3 10 4
24 18 43 30 45 1 0 1 -13 0 -29z m2504 -44 c0 -30 -4 -46 -10 -42 -5 3 -10 32
-10 63 0 41 3 53 10 42 5 -8 10 -37 10 -63z m1468 66 c-10 -2 -26 -2 -35 0
-10 3 -2 5 17 5 19 0 27 -2 18 -5z m-10991 -55 c-2 -13 -4 -5 -4 17 -1 22 1
32 4 23 2 -10 2 -28 0 -40z m2513 24 c22 3 26 1 22 -14 -2 -10 -9 -19 -16 -19
-47 -6 -55 -5 -51 2 3 4 -2 12 -10 17 -10 5 -13 15 -9 25 5 15 7 15 22 1 9 -9
26 -14 42 -12z m447 -4 c-3 -7 -5 -2 -5 12 0 14 2 19 5 13 2 -7 2 -19 0 -25z
m113 -3 c14 -19 14 -19 -2 -6 -10 7 -18 18 -18 24 0 6 1 8 3 6 1 -2 9 -13 17
-24z m567 3 c-3 -8 -6 -5 -6 6 -1 11 2 17 5 13 3 -3 4 -12 1 -19z m2503 11
c47 -5 88 -15 92 -22 4 -6 9 -34 13 -62 3 -27 8 -61 11 -75 l4 -25 -165 -1
c-91 -1 -165 2 -165 6 0 3 4 31 10 61 5 30 12 71 15 92 6 37 6 37 53 37 26 0
86 -5 132 -11z m3452 -25 c2 -19 0 -37 -4 -40 -4 -3 -8 3 -9 13 0 10 -2 28 -5
41 -2 12 0 22 5 22 5 0 11 -16 13 -36z m91 24 c14 3 17 -4 17 -36 0 -22 3 -54
6 -71 6 -27 4 -31 -15 -31 -12 0 -25 -8 -28 -17 -6 -15 -8 -14 -13 7 -4 14 -2
31 4 39 8 11 8 13 0 8 -7 -4 -12 13 -13 54 -1 47 1 59 11 53 7 -5 21 -7 31 -6z
m-6013 -8 c0 -5 -4 -10 -10 -10 -5 0 -10 5 -10 10 0 6 5 10 10 10 6 0 10 -4
10 -10z m522 -2 c-15 -15 -16 -32 -2 -23 6 4 10 -5 10 -19 0 -37 -18 -32 -28
7 -7 25 -5 33 7 39 24 10 26 9 13 -4z m1693 -15 c-4 -10 -11 -42 -15 -72 -14
-82 -18 -81 -39 11 -17 73 -16 78 25 78 30 0 35 -3 29 -17z m3916 -45 c0 -35
2 -78 3 -95 1 -18 -1 -33 -6 -33 -4 0 -8 6 -8 13 -1 6 -3 49 -6 95 -4 56 -2
82 5 82 7 0 11 -24 12 -62z m-7231 42 c0 -5 -4 -10 -10 -10 -5 0 -10 5 -10 10
0 6 5 10 10 10 6 0 10 -4 10 -10z m1190 0 c0 -5 -5 -10 -11 -10 -5 0 -7 5 -4
10 3 6 8 10 11 10 2 0 4 -4 4 -10z m2583 3 c-13 -2 -33 -2 -45 0 -13 2 -3 4
22 4 25 0 35 -2 23 -4z m-7866 -11 c7 -5 9 -13 3 -22 -7 -11 -11 -11 -24 -1
-24 20 -6 40 21 23z m67 -6 c-4 -11 -54 -30 -54 -20 0 18 17 34 36 34 16 0 22
-4 18 -14z m2516 -2 c0 -2 -21 -3 -47 -3 -41 1 -44 2 -18 8 28 7 65 4 65 -5z
m5643 -5 l118 -12 -3 -61 -3 -61 -55 2 c-116 5 -267 3 -324 -3 -58 -6 -59 -6
-52 17 3 13 9 50 13 83 l6 59 91 -6 c50 -3 144 -11 209 -18z m2767 -27 l0 -44
-65 5 c-44 3 -65 1 -65 -7 0 -6 -4 -5 -9 3 -7 11 -13 12 -23 4 -8 -7 -93 -13
-223 -16 -173 -4 -226 -2 -300 12 l-90 17 95 8 c103 9 137 12 190 21 32 5 177
17 375 32 44 3 81 7 83 8 1 1 9 2 17 2 11 0 15 -12 15 -45z m5850 34 c0 -8 -7
-16 -15 -20 -10 -4 -15 1 -15 14 0 11 7 20 15 20 8 0 15 -6 15 -14z m-12362
-21 c-3 -3 -9 2 -12 12 -6 14 -5 15 5 6 7 -7 10 -15 7 -18z m3379 -50 c-12
-44 -15 -48 -24 -30 -6 11 -13 37 -17 57 -6 35 -5 37 21 40 34 4 36 -4 20 -67z
m-2647 36 c0 -3 -13 -15 -28 -25 l-27 -20 18 21 c11 13 15 27 10 39 -6 17 -5
17 10 5 9 -7 17 -16 17 -20z m1857 23 c-3 -3 -12 -4 -19 -1 -8 3 -5 6 6 6 11
1 17 -2 13 -5z m1630 0 c-3 -3 -12 -4 -19 -1 -8 3 -5 6 6 6 11 1 17 -2 13 -5z
m-4664 -11 c-7 -2 -19 -2 -25 0 -7 3 -2 5 12 5 14 0 19 -2 13 -5z m4567 -18
c235 -25 284 -36 288 -62 3 -20 -3 -22 -73 -28 -42 -4 -98 -5 -126 -3 -40 4
-49 2 -50 -11 -1 -14 -2 -14 -5 -1 -4 14 -16 14 -97 3 -145 -19 -134 -23 -139
50 -3 34 -4 65 -2 68 2 4 14 5 26 3 13 -2 93 -11 178 -19z m487 -7 c-3 -7 -5
-2 -5 12 0 14 2 19 5 13 2 -7 2 -19 0 -25z m-5947 -8 c14 -10 42 -23 63 -30
45 -14 67 -54 67 -119 0 -50 -9 -56 -38 -26 -12 13 -37 28 -54 34 l-32 11 24
-27 c14 -16 62 -64 107 -108 58 -56 83 -87 83 -104 0 -17 -4 -22 -16 -17 -8 3
-55 11 -104 18 -110 14 -122 25 -144 128 -15 72 -14 76 4 92 26 21 25 33 -4
71 -35 48 -41 76 -20 92 19 14 22 13 64 -15z m1757 -32 c-2 -13 -4 -3 -4 22 0
25 2 35 4 23 2 -13 2 -33 0 -45z m6230 43 c1 -14 -3 -18 -13 -14 -17 6 -18 20
-1 26 6 3 12 6 12 6 1 1 1 -8 2 -18z m-7113 -2 c4 6 13 11 19 11 7 0 6 -4 -3
-10 -28 -17 0 -24 35 -7 28 14 33 14 28 2 -3 -8 -6 -15 -7 -15 0 0 -16 -4 -34
-9 -33 -10 -62 5 -62 32 0 8 3 7 9 -2 6 -9 11 -10 15 -2z m9583 -5 c5 -13 8
-13 15 -2 7 9 8 5 5 -14 -2 -17 0 -28 7 -28 14 0 57 29 73 50 11 13 12 12 13
-7 0 -13 -6 -23 -13 -23 -7 0 -29 -15 -48 -33 -29 -28 -39 -32 -57 -24 -12 6
-22 14 -22 19 0 5 5 6 11 2 6 -3 3 8 -6 25 -16 31 -13 51 6 51 5 0 12 -7 16
-16z m-12080 -26 c-3 -7 -5 -2 -5 12 0 14 2 19 5 13 2 -7 2 -19 0 -25z m2921
8 c-7 -8 -16 -12 -21 -9 -11 7 2 23 19 23 12 0 12 -2 2 -14z m7072 -17 c0 -5
-4 -9 -10 -9 -5 0 -10 7 -10 16 0 8 5 12 10 9 6 -3 10 -10 10 -16z m-7063 -11
c-3 -8 -6 -5 -6 6 -1 11 2 17 5 13 3 -3 4 -12 1 -19z m1213 -3 c0 -14 -4 -25
-10 -25 -5 0 -10 11 -10 25 0 14 5 25 10 25 6 0 10 -11 10 -25z m3425 15 c-3
-5 -12 -10 -18 -10 -7 0 -6 4 3 10 19 12 23 12 15 0z m2515 -36 c0 -14 -6 -24
-14 -24 -15 0 -30 45 -20 61 10 16 34 -10 34 -37z m-2595 16 c15 -6 6 -9 -32
-9 -29 -1 -53 4 -53 9 0 12 57 12 85 0z m115 0 c0 -5 -7 -7 -15 -4 -8 4 -15 8
-15 10 0 2 7 4 15 4 8 0 15 -4 15 -10z m3990 0 c0 -5 -15 -10 -32 -10 -25 0
-29 3 -18 10 20 13 50 13 50 0z m-13883 -22 c-3 -8 -6 -5 -6 6 -1 11 2 17 5
13 3 -3 4 -12 1 -19z m12006 15 c-7 -2 -19 -2 -25 0 -7 3 -2 5 12 5 14 0 19
-2 13 -5z m287 -8 c0 -8 -4 -15 -8 -15 -5 0 -9 7 -9 15 0 8 4 15 9 15 4 0 8
-7 8 -15z m728 -25 c-2 -15 1 -27 7 -27 6 0 9 15 7 36 l-3 36 14 -27 c16 -28
22 -134 8 -142 -4 -3 -17 -2 -29 1 -20 5 -22 12 -22 85 0 55 3 77 11 72 6 -3
9 -19 7 -34z m5703 23 c13 -16 12 -17 -3 -4 -10 7 -18 15 -18 17 0 8 8 3 21
-13z m-12104 -15 c-3 -8 -6 -5 -6 6 -1 11 2 17 5 13 3 -3 4 -12 1 -19z m4150
-25 c-3 -10 -5 -2 -5 17 0 19 2 27 5 18 2 -10 2 -26 0 -35z m1683 23 c0 -19
-4 -23 -19 -19 -17 4 -18 8 -8 24 16 26 27 24 27 -5z m68 -14 c3 -25 0 -31
-12 -26 -10 4 -16 18 -16 36 0 40 24 32 28 -10z m202 26 c0 -4 -7 -8 -15 -8
-8 0 -15 4 -15 8 0 5 7 9 15 9 8 0 15 -4 15 -9z m67 -10 c-3 -8 -6 -5 -6 6 -1
11 2 17 5 13 3 -3 4 -12 1 -19z m130 -15 c-3 -10 -5 -4 -5 12 0 17 2 24 5 18
2 -7 2 -21 0 -30z m-8830 16 c16 -16 103 -48 198 -72 44 -11 83 -25 86 -30 11
-16 61 -11 71 7 12 22 28 20 90 -8 29 -14 72 -33 96 -42 24 -11 42 -24 42 -34
0 -50 -79 -86 -122 -55 -31 21 -138 21 -138 0 0 -8 7 -15 15 -15 8 0 15 -9 15
-20 0 -24 -35 -28 -44 -4 -5 12 -15 14 -51 8 -29 -4 -50 -2 -59 5 -11 9 -18 8
-29 -4 -15 -14 -17 -14 -27 5 -6 11 -42 43 -79 70 -38 28 -71 56 -74 64 -3 8
-9 42 -13 75 -6 60 0 73 23 50z m963 -8 c0 -11 6 -22 13 -24 6 -3 3 -6 -8 -6
-12 -1 -26 -6 -33 -13 -6 -6 -14 -9 -17 -6 -3 3 1 13 10 22 9 9 13 16 8 16 -5
0 -14 -5 -21 -12 -9 -9 -12 -9 -12 1 0 16 29 40 48 41 6 0 12 -9 12 -19z m909
-12 c-8 -5 -23 -9 -34 -9 -17 0 -15 4 10 20 19 12 31 16 34 9 2 -6 -3 -15 -10
-20z m6985 -98 c-2 -2 -10 -1 -19 2 -17 7 -21 72 -5 82 6 3 11 16 11 28 1 12
5 -7 9 -43 4 -36 6 -67 4 -69z m-5094 107 c0 -4 -4 -8 -9 -8 -6 0 -12 4 -15 8
-3 5 1 9 9 9 8 0 15 -4 15 -9z m4374 -28 c-5 -5 -10 3 -11 18 -1 22 0 24 9 8
6 -10 6 -22 2 -26z m366 10 c0 -10 -6 -20 -13 -23 -9 -3 -13 2 -11 16 1 12 3
26 3 30 2 16 21 -5 21 -23z m-12623 -12 c-3 -7 -5 -2 -5 12 0 14 2 19 5 13 2
-7 2 -19 0 -25z m3541 20 c-7 -19 -35 -21 -35 -3 0 8 9 15 20 15 10 0 17 -5
15 -12z m3009 -10 c-3 -8 -6 -5 -6 6 -1 11 2 17 5 13 3 -3 4 -12 1 -19z m173
12 c0 -5 -4 -10 -9 -10 -6 0 -13 5 -16 10 -3 6 1 10 9 10 9 0 16 -4 16 -10z
m5948 -15 c1 -14 -2 -25 -7 -25 -10 0 -21 36 -13 44 11 12 18 5 20 -19z m80
-7 c-4 -39 -21 -35 -26 5 -2 19 1 27 13 27 12 0 16 -8 13 -32z m981 23 c19
-12 -23 -34 -49 -26 -25 8 -26 22 -2 28 28 8 36 7 51 -2z m5051 -12 c0 -14
-17 -10 -23 5 -4 10 -1 13 9 9 7 -3 14 -9 14 -14z m-15200 4 c0 -5 -5 -15 -10
-23 -8 -12 -10 -11 -10 8 0 12 5 22 10 22 6 0 10 -3 10 -7z m5943 0 c-7 -2
-19 -2 -25 0 -7 3 -2 5 12 5 14 0 19 -2 13 -5z m1557 -3 c0 -5 -2 -10 -4 -10
-3 0 -8 5 -11 10 -3 6 -1 10 4 10 6 0 11 -4 11 -10z m1750 -9 c14 -27 13 -51
-4 -51 -8 0 -15 14 -18 35 -4 39 6 46 22 16z m-1493 3 c-3 -3 -12 -4 -19 -1
-8 3 -5 6 6 6 11 1 17 -2 13 -5z m40 0 c-3 -3 -12 -4 -19 -1 -8 3 -5 6 6 6 11
1 17 -2 13 -5z m206 -1 c-7 -2 -21 -2 -30 0 -10 3 -4 5 12 5 17 0 24 -2 18 -5z
m194 1 c-3 -3 -12 -4 -19 -1 -8 3 -5 6 6 6 11 1 17 -2 13 -5z m7720 0 c-3 -3
-12 -4 -19 -1 -8 3 -5 6 6 6 11 1 17 -2 13 -5z m-19120 -26 c-3 -8 -6 -5 -6 6
-1 11 2 17 5 13 3 -3 4 -12 1 -19z m172 10 c0 -7 -4 -22 -9 -33 -7 -17 -9 -15
-9 13 -1 17 4 32 9 32 6 0 10 -6 9 -12z m4261 3 c0 -5 -9 -7 -20 -4 -11 3 -20
7 -20 9 0 2 9 4 20 4 11 0 20 -4 20 -9z m-4460 -5 c0 -2 -7 -6 -15 -10 -8 -3
-15 -1 -15 4 0 6 7 10 15 10 8 0 15 -2 15 -4z m225 -6 c3 -5 1 -10 -4 -10 -6
0 -11 5 -11 10 0 6 2 10 4 10 3 0 8 -4 11 -10z m9145 -16 c0 -8 -7 -14 -15
-14 -17 0 -18 2 -9 24 7 18 24 12 24 -10z m657 10 c-3 -3 -12 -4 -19 -1 -8 3
-5 6 6 6 11 1 17 -2 13 -5z m177 -26 c5 -21 3 -26 -7 -22 -9 3 -12 14 -9 30 5
29 7 28 16 -8z m1307 22 c16 0 26 -6 26 -15 0 -16 -13 -20 -21 -6 -9 13 -55
19 -59 8 -2 -6 -6 -3 -10 7 -6 15 -3 17 15 12 13 -3 35 -6 49 -6z m-7106 -20
c0 -23 -49 -20 -53 3 -3 15 2 18 25 15 17 -2 28 -9 28 -18z m9653 10 c6 0 12
-8 12 -17 0 -14 2 -15 9 -4 6 9 14 10 27 3 11 -5 25 -7 33 -4 8 3 11 0 7 -7
-4 -6 -18 -9 -31 -7 -12 2 -33 -3 -46 -12 -16 -11 -24 -12 -27 -4 -2 7 -12 12
-23 12 -14 0 -19 7 -19 26 0 22 3 25 23 20 12 -3 28 -6 35 -6z m-9374 -15 c11
-8 17 -17 15 -20 -8 -7 -49 7 -49 17 0 5 -4 7 -9 3 -5 -3 -12 -1 -16 5 -10 15
37 11 59 -5z m1509 -5 c3 -11 1 -18 -4 -14 -5 3 -9 12 -9 20 0 20 7 17 13 -6z
m5445 5 c1 -1 -6 -12 -16 -25 -17 -21 -19 -21 -32 -4 -9 11 -10 15 -2 10 6 -4
12 -2 12 3 0 6 -11 11 -25 11 -14 0 -25 4 -25 9 0 7 78 4 88 -4z m-10171 -1
c-3 -3 -12 -4 -19 -1 -8 3 -5 6 6 6 11 1 17 -2 13 -5z m283 -6 l65 -1 -60 -6
c-77 -8 -143 -2 -124 10 8 5 23 7 34 4 11 -2 49 -6 85 -7z m3230 2 c0 -5 -4
-10 -9 -10 -6 0 -13 5 -16 10 -3 6 1 10 9 10 9 0 16 -4 16 -10z m284 -18 c23
-25 25 -31 12 -41 -10 -8 -16 -9 -21 -1 -3 5 0 10 7 10 7 1 -3 14 -22 30 -21
18 -28 30 -19 30 8 0 28 -13 43 -28z m10126 24 c0 -2 -7 -9 -15 -16 -12 -10
-15 -10 -15 4 0 9 7 16 15 16 8 0 15 -2 15 -4z m-13793 -12 c-3 -3 -12 -4 -19
-1 -8 3 -5 6 6 6 11 1 17 -2 13 -5z m17387 -2 c3 -5 -1 -9 -9 -9 -8 0 -12 4
-9 9 3 4 7 8 9 8 2 0 6 -4 9 -8z m-18930 -10 c-6 -4 -14 -14 -17 -22 -4 -10
-6 -8 -6 8 -1 15 5 22 17 22 10 0 13 -3 6 -8z m5136 4 c0 -2 -8 -10 -17 -17
-16 -13 -17 -12 -4 4 13 16 21 21 21 13z m6283 -25 c12 7 34 12 49 11 15 0 28
4 28 10 0 6 9 0 21 -13 l21 -24 -36 -3 c-24 -2 -36 -8 -36 -19 0 -9 -6 -13
-14 -10 -8 3 -17 0 -20 -8 -3 -8 -14 -13 -25 -12 -18 1 -21 7 -20 52 1 27 4
40 6 28 4 -20 7 -21 26 -12z m-9634 10 c7 -5 9 -11 5 -14 -5 -3 -15 1 -22 9
-14 16 -5 18 17 5z m74 -4 c3 -8 1 -20 -4 -28 -7 -12 -9 -12 -9 0 0 9 -7 11
-21 8 -21 -6 -21 -5 -3 13 23 23 30 24 37 7z m121 5 c3 -5 -1 -9 -9 -9 -8 0
-15 4 -15 9 0 4 4 8 9 8 6 0 12 -4 15 -8z m9815 -10 c36 -10 67 -24 69 -31 3
-8 -3 -11 -14 -10 -11 2 -25 0 -31 -4 -9 -6 -11 -3 -7 7 8 20 -10 21 -30 1
-18 -18 -101 -20 -120 -3 -11 11 -11 17 1 35 19 28 46 29 132 5z m-7057 -9
c21 -9 38 -20 38 -25 0 -4 6 -8 12 -8 19 0 118 -52 118 -62 0 -4 9 -8 20 -8
11 0 20 -4 20 -9 0 -5 14 -12 30 -16 30 -7 60 -29 60 -45 0 -10 -35 -2 -70 17
-22 11 -23 13 -5 13 14 1 10 5 -14 15 -42 19 -50 19 -25 0 10 -8 14 -15 9 -15
-6 0 -30 18 -53 39 -23 22 -61 46 -84 54 -24 8 -42 20 -40 26 1 6 -6 11 -15
11 -10 1 -31 7 -48 15 -22 10 -25 14 -11 14 11 1 37 -7 58 -16z m-372 1 c0 -3
-5 -14 -11 -25 -10 -20 -11 -20 -30 -3 -27 24 -24 34 11 34 17 0 30 -3 30 -6z
m110 -41 c0 -8 -5 -11 -11 -8 -6 4 -24 8 -39 9 -37 3 -46 12 -31 30 11 13 17
13 47 -1 19 -9 34 -23 34 -30z m-2800 22 c0 -8 -4 -15 -10 -15 -5 0 -7 7 -4
15 4 8 8 15 10 15 2 0 4 -7 4 -15z m880 0 c10 -12 10 -15 -4 -15 -9 0 -16 7
-16 15 0 8 2 15 4 15 2 0 9 -7 16 -15z m138 8 c-10 -2 -26 -2 -35 0 -10 3 -2
5 17 5 19 0 27 -2 18 -5z m512 -3 c8 -5 12 -12 8 -15 -9 -9 -48 4 -48 16 0 12
21 11 40 -1z m9893 3 c-7 -2 -19 -2 -25 0 -7 3 -2 5 12 5 14 0 19 -2 13 -5z
m-10065 -10 c-10 -2 -28 -2 -40 0 -13 2 -5 4 17 4 22 1 32 -1 23 -4z m10442 0
c-1 -18 -29 -43 -46 -42 -17 1 -17 2 -1 6 9 2 17 13 17 24 0 10 7 19 15 19 8
0 15 -3 15 -7z m4564 -9 c3 -8 2 -12 -4 -9 -6 3 -10 10 -10 16 0 14 7 11 14
-7z m-16019 -4 c4 -6 -8 -11 -27 -12 -18 0 -46 -2 -61 -3 -15 -1 -30 1 -32 5
-2 3 17 7 43 9 25 1 48 4 51 7 7 7 20 4 26 -6z m418 -13 c-3 -5 -1 -7 5 -3 6
3 88 8 184 10 190 3 161 -5 -85 -24 -116 -10 -154 -10 -177 0 -17 7 -42 10
-58 8 -15 -3 -38 -2 -52 2 -18 6 -6 8 41 9 38 1 70 -4 77 -11 9 -9 11 -7 8 8
-4 17 1 19 30 16 20 -3 31 -8 27 -15z m500 16 c-7 -2 -21 -2 -30 0 -10 3 -4 5
12 5 17 0 24 -2 18 -5z m3167 -23 c-20 -13 -33 -13 -25 0 3 6 14 10 23 10 15
0 15 -2 2 -10z m493 -5 c4 -8 2 -17 -3 -20 -6 -4 -10 3 -10 14 0 25 6 27 13 6z
m6760 8 c-7 -2 -19 -2 -25 0 -7 3 -2 5 12 5 14 0 19 -2 13 -5z m-11673 -23 c0
-5 -8 -10 -17 -10 -15 0 -16 2 -3 10 19 12 20 12 20 0z m1077 4 c-3 -3 -12 -4
-19 -1 -8 3 -5 6 6 6 11 1 17 -2 13 -5z m9442 -6 c4 7 12 8 21 1 13 -8 13 -10
1 -18 -8 -5 -11 -16 -8 -25 5 -12 0 -15 -18 -14 -18 2 -21 5 -13 15 7 9 7 17
-1 26 -6 8 -8 17 -4 21 4 4 9 2 12 -5 2 -7 6 -8 10 -1z m-7549 -13 c7 -8 8
-15 2 -15 -5 0 -15 7 -22 15 -7 8 -8 15 -2 15 5 0 15 -7 22 -15z m-5003 -17
c-3 -8 -6 -5 -6 6 -1 11 2 17 5 13 3 -3 4 -12 1 -19z m1798 11 c11 -17 -1 -21
-15 -4 -8 9 -8 15 -2 15 6 0 14 -5 17 -11z m13885 -19 c0 -5 -2 -10 -4 -10 -3
0 -8 5 -11 10 -3 6 -1 10 4 10 6 0 11 -4 11 -10z m2724 -6 c3 -8 2 -12 -4 -9
-6 3 -10 10 -10 16 0 14 7 11 14 -7z m-17653 -20 c17 -21 -5 -17 -32 5 -24 20
-24 20 -2 14 12 -3 28 -11 34 -19z m1564 16 c3 -5 -1 -10 -10 -10 -9 0 -13 5
-10 10 3 6 8 10 10 10 2 0 7 -4 10 -10z m45 -10 c0 -5 -7 -10 -15 -10 -8 0
-15 5 -15 10 0 6 7 10 15 10 8 0 15 -4 15 -10z m458 -31 c-20 -13 -58 -11 -58
4 0 7 12 14 28 15 15 1 29 8 32 15 2 7 6 4 8 -7 2 -10 -2 -22 -10 -27z m-1888
-26 c0 -7 -4 -13 -10 -13 -5 0 -10 12 -10 28 0 21 2 24 10 12 5 -8 10 -21 10
-27z m4353 24 c12 -12 20 -37 13 -37 -2 0 -11 11 -20 25 -17 26 -13 34 7 12z
m9047 -29 l0 -22 -20 22 c-11 12 -20 26 -20 32 0 8 6 8 20 0 11 -6 20 -20 20
-32z m-8915 22 c3 -6 -1 -7 -9 -4 -18 7 -21 14 -7 14 6 0 13 -4 16 -10z m6328
-15 c-7 -21 -13 -19 -13 6 0 11 4 18 10 14 5 -3 7 -12 3 -20z m-12013 6 c0
-15 -30 -41 -47 -41 -13 0 -13 3 -3 15 7 8 19 15 26 15 8 0 14 5 14 10 0 6 2
10 5 10 3 0 5 -4 5 -9z m80 -31 c6 0 8 5 5 10 -3 6 1 10 9 10 9 0 16 -2 16 -4
0 -2 2 -10 5 -18 4 -10 -6 -13 -38 -12 -51 1 -68 9 -60 30 5 13 8 13 29 -1 13
-8 28 -15 34 -15z m510 9 c0 -6 -4 -7 -10 -4 -5 3 -10 11 -10 16 0 6 5 7 10 4
6 -3 10 -11 10 -16z m227 15 c-3 -3 -12 -4 -19 -1 -8 3 -5 6 6 6 11 1 17 -2
13 -5z m4868 -12 c-3 -3 -11 0 -18 7 -9 10 -8 11 6 5 10 -3 15 -9 12 -12z
m-5535 -2 c8 -5 12 -12 9 -15 -8 -8 -39 5 -39 16 0 11 11 11 30 -1z m460 -24
c0 -3 -4 -8 -10 -11 -5 -3 -10 -1 -10 4 0 6 5 11 10 11 6 0 10 -2 10 -4z
m2020 -6 c0 -5 -8 -10 -17 -10 -15 0 -16 2 -3 10 19 12 20 12 20 0z m-2545
-10 c-3 -5 -1 -10 4 -10 6 0 11 3 11 8 0 4 11 8 25 8 28 2 32 -8 10 -26 -9 -7
-15 -8 -15 -2 0 5 -9 8 -20 5 -10 -3 -19 -8 -18 -12 2 -20 -3 -31 -13 -26 -6
4 -8 13 -5 21 3 9 0 11 -11 7 -12 -5 -14 -3 -8 7 6 10 4 12 -8 7 -10 -4 -17
-2 -17 4 0 6 9 9 19 6 10 -2 25 -1 32 4 18 11 22 11 14 -1z m13587 -22 c-13
-13 -32 -2 -32 18 0 12 4 13 21 3 14 -7 18 -14 11 -21z m-13377 12 c3 -5 -1
-10 -9 -10 -9 0 -16 5 -16 10 0 6 4 10 9 10 6 0 13 -4 16 -10z m75 -4 c0 -3
-4 -8 -10 -11 -5 -3 -10 -1 -10 4 0 6 5 11 10 11 6 0 10 -2 10 -4z m-430 -10
c0 -3 -4 -8 -10 -11 -5 -3 -10 -1 -10 4 0 6 5 11 10 11 6 0 10 -2 10 -4z m175
-26 c-3 -5 -12 -10 -18 -10 -7 0 -6 4 3 10 19 12 23 12 15 0z m13952 -6 c-3
-3 -12 -4 -19 -1 -8 3 -5 6 6 6 11 1 17 -2 13 -5z m-13687 -24 c0 -5 -7 -7
-15 -4 -8 4 -15 8 -15 10 0 2 7 4 15 4 8 0 15 -4 15 -10z m5750 0 c0 -5 -4
-10 -10 -10 -5 0 -10 5 -10 10 0 6 5 10 10 10 6 0 10 -4 10 -10z m5936 -19
c32 -15 79 -32 103 -36 78 -13 158 -50 167 -77 3 -10 10 -16 15 -13 9 6 13 -7
10 -31 -1 -7 5 -14 13 -17 11 -4 13 -1 9 10 -5 14 -2 13 19 -3 22 -16 23 -20
10 -30 -14 -10 -13 -13 4 -21 10 -6 25 -8 32 -6 14 6 17 -33 2 -42 -5 -3 -10
0 -10 8 0 11 -7 13 -21 10 -20 -6 -20 -7 -5 -18 22 -16 20 -24 -4 -18 -11 3
-20 9 -20 14 0 5 -11 9 -24 9 -24 0 -51 22 -39 33 14 14 -28 18 -57 5 -21 -9
-30 -18 -27 -30 6 -20 -23 -34 -35 -16 -6 11 -8 11 -8 0 0 -10 -3 -10 -14 0
-11 10 -9 15 10 30 12 10 34 18 48 18 14 0 26 4 26 9 0 5 9 13 20 16 30 10 24
25 -10 25 -25 0 -30 4 -30 25 0 16 -4 23 -13 19 -8 -3 -20 2 -27 11 -7 8 -18
15 -25 15 -6 0 -18 11 -25 25 -14 26 -34 33 -45 15 -9 -14 -51 -12 -63 3 -8
10 -6 16 10 26 27 17 6 32 -34 24 -24 -5 -28 -2 -28 16 0 11 1 21 3 21 2 0 30
-13 63 -29z m1942 17 c-3 -7 -17 -14 -31 -16 -21 -3 -26 0 -21 12 7 19 58 22
52 4z m106 1 c-9 -15 41 -37 111 -48 101 -16 130 -25 133 -44 2 -9 -2 -17 -8
-17 -7 0 -10 7 -6 15 3 9 0 15 -8 15 -8 0 -23 3 -33 7 -17 6 -17 6 0 -15 11
-11 16 -26 12 -31 -3 -6 6 -16 22 -22 21 -8 24 -12 13 -19 -8 -5 -18 -6 -23
-3 -5 3 -13 -1 -18 -8 -6 -9 -8 -1 -5 23 3 26 -1 43 -15 59 -10 12 -19 19 -19
14 0 -4 -7 -2 -15 5 -8 6 -37 12 -64 12 -28 -1 -53 3 -56 9 -4 5 -11 7 -16 3
-5 -3 -7 -10 -4 -15 12 -18 -3 -9 -38 25 -20 18 -33 36 -30 39 9 9 73 5 67 -4z
m-13567 -15 c-3 -3 -12 -4 -19 -1 -8 3 -5 6 6 6 11 1 17 -2 13 -5z m13833 -4
c-8 -5 -22 -9 -30 -9 -10 0 -8 3 5 9 27 12 43 12 25 0z m-14106 -25 c-4 -8 -8
-15 -10 -15 -2 0 -4 7 -4 15 0 8 4 15 10 15 5 0 7 -7 4 -15z m563 -17 c-3 -7
-5 -2 -5 12 0 14 2 19 5 13 2 -7 2 -19 0 -25z m238 12 c-3 -5 -12 -7 -20 -3
-8 3 -15 0 -15 -6 0 -10 13 -15 32 -13 10 2 31 -28 25 -35 -4 -3 -13 -1 -21 6
-11 9 -15 9 -18 0 -3 -9 -10 -8 -26 2 -25 16 -28 29 -10 47 14 14 62 16 53 2z
m832 -12 c-3 -8 -6 -5 -6 6 -1 11 2 17 5 13 3 -3 4 -12 1 -19z m249 6 c-5 -13
-1 -15 21 -10 21 5 24 4 13 -4 -13 -9 -13 -10 0 -11 9 0 11 -2 3 -5 -17 -7
-53 14 -53 31 0 8 5 15 11 15 6 0 8 -7 5 -16z m324 -4 c-6 -11 -21 -20 -33
-20 -22 0 -22 1 3 20 32 25 43 25 30 0z m3945 10 c3 -5 2 -10 -4 -10 -5 0 -13
5 -16 10 -3 6 -2 10 4 10 5 0 13 -4 16 -10z m-5265 -21 c0 -6 -4 -7 -10 -4 -5
3 -10 11 -10 16 0 6 5 7 10 4 6 -3 10 -11 10 -16z m-874 -56 c-11 -11 -26 10
-26 35 l1 27 15 -28 c9 -16 13 -31 10 -34z m2241 26 c-8 -21 -13 -26 -15 -14
-5 21 5 45 17 45 5 0 4 -13 -2 -31z m1235 16 c0 -5 -5 -11 -11 -13 -6 -2 -11
4 -11 13 0 9 5 15 11 13 6 -2 11 -8 11 -13z m-997 -16 c-3 -5 1 -6 10 -2 13 4
16 1 14 -12 -2 -10 -10 -20 -18 -23 -8 -3 -11 0 -7 7 4 6 1 11 -7 11 -10 0
-13 7 -10 20 3 11 9 17 14 14 5 -3 7 -10 4 -15z m-1619 -16 c-10 -10 -19 5
-10 18 6 11 8 11 12 0 2 -7 1 -15 -2 -18z m1157 7 c3 -11 3 -20 1 -20 -2 0 -8
9 -14 20 -6 11 -7 20 -2 20 6 0 12 -9 15 -20z m437 16 c0 -3 -4 -8 -10 -11 -5
-3 -10 -1 -10 4 0 6 5 11 10 11 6 0 10 -2 10 -4z m11340 -21 c0 -8 -7 -15 -15
-15 -13 0 -14 3 -3 15 16 18 18 18 18 0z m-11440 -15 c0 -5 -2 -10 -4 -10 -3
0 -8 5 -11 10 -3 6 -1 10 4 10 6 0 11 -4 11 -10z m860 -30 c0 -11 -7 -20 -15
-20 -8 0 -15 -5 -15 -11 0 -5 -5 -7 -11 -3 -8 5 -6 10 5 16 9 5 16 16 16 23 0
8 5 15 10 15 6 0 10 -9 10 -20z m-2109 -5 c-1 -15 -24 -12 -29 3 -3 9 2 13 12
10 10 -1 17 -7 17 -13z m1914 5 c3 -5 2 -10 -4 -10 -5 0 -13 5 -16 10 -3 6 -2
10 4 10 5 0 13 -4 16 -10z m12705 0 c0 -6 -13 -13 -30 -16 -16 -4 -30 -12 -30
-19 0 -8 14 -19 30 -27 42 -18 37 -27 -11 -18 -50 9 -59 19 -48 48 12 31 89
59 89 32z m-12570 -4 c0 -2 -7 -7 -16 -10 -8 -3 -12 -2 -9 4 6 10 25 14 25 6z
m11420 -5 c0 -5 -12 -8 -26 -8 -18 0 -22 2 -13 8 18 11 39 11 39 0z m-8285
-11 c3 -5 1 -10 -4 -10 -6 0 -11 5 -11 10 0 6 2 10 4 10 3 0 8 -4 11 -10z
m8385 0 c0 -5 -2 -10 -4 -10 -3 0 -8 5 -11 10 -3 6 -1 10 4 10 6 0 11 -4 11
-10z m-14605 -10 c3 -5 1 -10 -4 -10 -6 0 -11 5 -11 10 0 6 2 10 4 10 3 0 8
-4 11 -10z m1301 2 c23 -16 24 -45 2 -79 -17 -29 -23 -33 -32 -21 -6 7 -20 12
-31 10 -20 -3 -20 -3 0 13 11 8 25 13 31 11 8 -3 11 8 10 35 -1 40 1 44 20 31z
m1484 -2 c0 -5 -12 -10 -27 -9 l-28 1 25 8 c14 4 26 8 28 9 1 1 2 -3 2 -9z
m-2055 -10 c3 -5 1 -10 -4 -10 -6 0 -11 5 -11 10 0 6 2 10 4 10 3 0 8 -4 11
-10z m13156 -10 c29 -16 24 -40 -8 -40 -22 0 -25 2 -13 10 10 6 11 10 3 10 -7
0 -13 7 -13 15 0 18 5 18 31 5z m-13249 -15 c0 -5 -5 -11 -11 -13 -6 -2 -11 4
-11 13 0 9 5 15 11 13 6 -2 11 -8 11 -13z m584 -10 c1 -8 -4 -11 -11 -8 -8 2
-11 11 -8 19 6 16 16 11 19 -11z m5234 -6 c10 -6 0 -8 -29 -6 -25 2 -47 9 -49
16 -3 10 4 11 29 6 19 -4 41 -11 49 -16z m-5575 1 c3 -5 1 -10 -4 -10 -6 0
-11 5 -11 10 0 6 2 10 4 10 3 0 8 -4 11 -10z m525 -15 c0 -2 -7 -2 -15 1 -10
4 -15 0 -15 -12 0 -15 -2 -16 -9 -5 -15 23 -2 42 20 30 10 -5 19 -12 19 -14z
m5129 1 c30 -11 32 -13 16 -26 -10 -9 -19 -10 -23 -4 -4 6 -15 13 -24 17 -10
3 -18 11 -18 17 0 12 6 12 49 -4z m8637 -1 c25 -19 4 -19 -32 0 -24 12 -26 15
-8 15 11 0 29 -7 40 -15z m-13966 -11 c0 -2 -7 -4 -15 -4 -8 0 -15 4 -15 10 0
5 7 7 15 4 8 -4 15 -8 15 -10z m143 -14 c-7 -25 -23 -37 -23 -16 0 23 11 46
20 41 5 -3 6 -14 3 -25z m107 -6 c0 -16 -16 -19 -25 -4 -8 13 4 32 16 25 5 -4
9 -13 9 -21z m1723 19 c-7 -2 -19 -2 -25 0 -7 3 -2 5 12 5 14 0 19 -2 13 -5z
m-1663 -7 c0 -3 -4 -8 -10 -11 -5 -3 -10 -1 -10 4 0 6 5 11 10 11 6 0 10 -2
10 -4z m200 -15 c0 -6 -4 -13 -10 -16 -5 -3 -10 1 -10 9 0 9 5 16 10 16 6 0
10 -4 10 -9z m10023 -11 c-5 -19 -11 -22 -65 -34 -21 -5 -28 -3 -28 9 0 8 8
15 18 15 10 0 27 7 38 15 27 20 43 19 37 -5z m-10343 6 c0 -3 -4 -8 -10 -11
-5 -3 -10 -1 -10 4 0 6 5 11 10 11 6 0 10 -2 10 -4z m67 -22 c-3 -3 -12 -4
-19 -1 -8 3 -5 6 6 6 11 1 17 -2 13 -5z m10838 -4 c7 -11 -9 -11 -45 0 -24 8
-24 8 7 9 17 1 35 -3 38 -9z m1612 4 c-3 -3 -12 -4 -19 -1 -8 3 -5 6 6 6 11 1
17 -2 13 -5z m-10650 -10 c-3 -3 -12 -4 -19 -1 -8 3 -5 6 6 6 11 1 17 -2 13
-5z"/>
<path d="M6061 1814 c0 -11 3 -14 6 -6 3 7 2 16 -1 19 -3 4 -6 -2 -5 -13z"/>
<path d="M6770 1249 c0 -5 5 -7 10 -4 6 3 10 8 10 11 0 2 -4 4 -10 4 -5 0 -10
-5 -10 -11z"/>
<path d="M6770 1200 c0 -5 7 -7 15 -4 8 4 15 8 15 10 0 2 -7 4 -15 4 -8 0 -15
-4 -15 -10z"/>
<path d="M9145 1430 c-3 -5 -15 -10 -26 -10 -17 0 -59 -32 -59 -45 0 -14 37
-2 48 15 15 25 32 18 25 -10 -4 -14 -14 -20 -32 -20 -18 0 -22 -3 -13 -9 11
-7 11 -9 -2 -14 -9 -4 -23 -4 -31 -1 -11 5 -15 -1 -15 -20 0 -14 4 -26 10 -26
5 0 7 7 3 16 -5 14 3 15 58 12 63 -3 64 -3 67 25 4 30 22 38 22 10 1 -13 5
-10 16 10 12 22 18 25 32 18 15 -8 18 -5 17 17 0 25 -3 27 -46 28 -25 0 -51 4
-57 8 -6 3 -13 2 -17 -4z"/>
<path d="M9280 1394 c0 -9 7 -14 17 -12 25 5 28 28 4 28 -12 0 -21 -6 -21 -16z"/>
<path d="M9345 1360 c-3 -5 -1 -10 4 -10 6 0 11 5 11 10 0 6 -2 10 -4 10 -3 0
-8 -4 -11 -10z"/>
<path d="M9098 1293 c7 -3 16 -2 19 1 4 3 -2 6 -13 5 -11 0 -14 -3 -6 -6z"/>
<path d="M9040 1270 c-9 -6 -10 -10 -3 -10 6 0 15 5 18 10 8 12 4 12 -15 0z"/>
<path d="M9046 1245 c-11 -8 -15 -15 -9 -15 6 0 16 7 23 15 16 19 11 19 -14 0z"/>
<path d="M9074 1235 c-10 -8 -14 -14 -9 -14 6 0 19 6 29 14 11 8 15 15 10 15
-6 0 -19 -7 -30 -15z"/>
<path d="M9100 1220 c-9 -6 -10 -10 -3 -10 6 0 15 5 18 10 8 12 4 12 -15 0z"/>
<path d="M9570 1149 c0 -5 5 -7 10 -4 6 3 10 8 10 11 0 2 -4 4 -10 4 -5 0 -10
-5 -10 -11z"/>
<path d="M9555 1119 c-5 -8 -4 -10 3 -5 8 5 12 -1 13 -16 1 -18 2 -19 6 -4 6
23 -12 43 -22 25z"/>
<path d="M9542 1080 c0 -14 2 -19 5 -12 2 6 2 18 0 25 -3 6 -5 1 -5 -13z"/>
<path d="M9610 1009 c0 -5 5 -7 10 -4 6 3 10 8 10 11 0 2 -4 4 -10 4 -5 0 -10
-5 -10 -11z"/>
<path d="M5378 1530 c-2 -6 -2 -31 0 -55 4 -40 7 -45 28 -45 17 0 24 6 24 19
0 11 -6 22 -12 24 -10 4 -10 6 0 6 7 1 12 14 12 31 0 25 -4 30 -24 30 -13 0
-26 -5 -28 -10z"/>
<path d="M5410 1230 c0 -5 7 -7 15 -4 8 4 15 8 15 10 0 2 -7 4 -15 4 -8 0 -15
-4 -15 -10z"/>
<path d="M12455 1500 c3 -5 8 -10 11 -10 2 0 4 5 4 10 0 6 -5 10 -11 10 -5 0
-7 -4 -4 -10z"/>
<path d="M12848 1173 c6 -2 18 -2 25 0 6 3 1 5 -13 5 -14 0 -19 -2 -12 -5z"/>
<path d="M12723 1163 c15 -2 37 -2 50 0 12 2 0 4 -28 4 -27 0 -38 -2 -22 -4z"/>
<path d="M12310 979 c0 -14 26 -40 33 -32 8 8 -11 43 -23 43 -6 0 -10 -5 -10
-11z"/>
<path d="M4900 645 c33 -19 49 -19 24 0 -10 8 -26 14 -34 14 -9 0 -4 -6 10
-14z"/>
<path d="M5450 1985 c0 -8 6 -14 12 -12 8 1 15 -13 18 -33 4 -30 9 -35 36 -38
24 -3 33 2 42 22 9 21 19 26 48 26 50 0 40 6 -20 13 -65 8 -70 17 -10 18 l49
2 -50 7 c-85 14 -125 12 -125 -5z"/>
<path d="M5812 1988 c6 -18 28 -21 28 -4 0 9 -7 16 -16 16 -9 0 -14 -5 -12
-12z"/>
<path d="M6071 1984 c0 -11 3 -14 6 -6 3 7 2 16 -1 19 -3 4 -6 -2 -5 -13z"/>
<path d="M7414 1938 c14 -147 26 -375 37 -703 6 -192 12 -351 13 -351 0 -1 27
10 59 24 l58 25 -5 126 c-3 69 -8 232 -11 361 -4 129 -13 306 -21 393 -8 86
-14 164 -14 172 0 12 -14 15 -61 15 l-61 0 6 -62z"/>
<path d="M20213 1940 c0 -25 2 -35 4 -22 2 12 2 32 0 45 -2 12 -4 2 -4 -23z"/>
<path d="M2860 1935 c0 -11 11 -15 39 -15 42 0 62 14 35 24 -31 12 -74 7 -74
-9z"/>
<path d="M2962 1938 c5 -15 28 -23 28 -10 0 5 -7 13 -16 16 -10 4 -14 1 -12
-6z"/>
<path d="M6510 1940 c0 -5 5 -10 10 -10 6 0 10 5 10 10 0 6 -4 10 -10 10 -5 0
-10 -4 -10 -10z"/>
<path d="M6620 1905 c0 -25 14 -34 24 -16 8 12 -3 41 -15 41 -5 0 -9 -11 -9
-25z"/>
<path d="M2980 1895 c0 -17 2 -18 24 -9 23 9 20 24 -4 24 -11 0 -20 -7 -20
-15z"/>
<path d="M20187 1857 c-3 -8 -1 -20 4 -28 5 -8 9 -31 9 -51 0 -20 5 -40 10
-43 6 -4 10 20 10 64 0 54 -3 71 -14 71 -8 0 -16 -6 -19 -13z"/>
<path d="M8794 1828 c-4 -6 -3 -8 4 -4 6 3 15 -2 21 -11 8 -15 12 -16 23 -5
11 11 10 15 -2 22 -20 13 -37 12 -46 -2z"/>
<path d="M8683 1823 c9 -2 23 -2 30 0 6 3 -1 5 -18 5 -16 0 -22 -2 -12 -5z"/>
<path d="M2039 1815 c-3 -2 -3 -20 -1 -38 4 -34 4 -34 58 -36 30 0 54 2 54 7
-1 15 -28 42 -42 42 -8 0 -23 7 -34 15 -20 15 -28 18 -35 10z"/>
<path d="M6874 1805 c-3 -8 -4 -20 -2 -27 3 -7 7 -1 10 15 6 29 1 36 -8 12z"/>
<path d="M8604 1798 c-6 -10 -2 -11 66 -10 48 1 51 0 25 -8 -27 -8 -26 -9 10
-5 22 3 54 5 70 5 22 0 26 3 15 9 -21 12 -180 20 -186 9z"/>
<path d="M6850 1760 c0 -5 5 -10 11 -10 5 0 7 5 4 10 -3 6 -8 10 -11 10 -2 0
-4 -4 -4 -10z"/>
<path d="M2040 1719 c0 -5 22 -8 50 -8 27 1 47 5 45 9 -7 11 -95 10 -95 -1z"/>
<path d="M2040 1689 c0 -11 50 -12 69 0 9 6 -1 9 -28 9 -22 0 -41 -3 -41 -9z"/>
<path d="M2025 1660 c-3 -5 0 -13 8 -16 23 -8 102 0 102 11 0 14 -102 19 -110
5z"/>
<path d="M7170 1651 c0 -10 52 -90 115 -176 l115 -158 0 -229 c0 -204 2 -228
15 -214 12 12 15 51 15 220 0 140 -4 214 -12 233 -14 31 -59 97 -144 213 -30
41 -62 87 -72 102 -20 32 -32 36 -32 9z"/>
<path d="M5966 1642 c-2 -4 -1 -14 4 -22 7 -11 9 -9 7 8 -1 24 -3 26 -11 14z"/>
<path d="M6871 1614 c0 -11 3 -14 6 -6 3 7 2 16 -1 19 -3 4 -6 -2 -5 -13z"/>
<path d="M6510 1600 c0 -11 2 -20 4 -20 2 0 6 9 9 20 3 11 1 20 -4 20 -5 0 -9
-9 -9 -20z"/>
<path d="M19354 1591 c4 -5 -20 -17 -51 -27 -42 -13 -58 -15 -61 -6 -2 7 -11
12 -20 12 -13 0 -14 -2 -3 -9 9 -6 10 -11 2 -15 -6 -4 -11 -12 -11 -17 0 -16
56 -1 119 31 41 20 50 28 37 33 -9 4 -15 3 -12 -2z"/>
<path d="M1257 1584 c-3 -3 -1 -18 3 -34 4 -16 6 -31 2 -34 -3 -3 6 -6 19 -6
19 0 21 2 9 10 -11 7 -12 10 -2 10 8 0 12 6 9 13 -2 6 -9 11 -15 10 -6 -2 -9
3 -6 11 6 14 -9 30 -19 20z"/>
<path d="M3050 1577 c0 -9 12 -24 28 -36 24 -18 25 -19 5 -14 -14 3 -23 1 -23
-6 0 -20 98 -20 116 0 13 15 11 19 -23 37 -57 29 -103 37 -103 19z"/>
<path d="M5158 1583 c7 -3 16 -2 19 1 4 3 -2 6 -13 5 -11 0 -14 -3 -6 -6z"/>
<path d="M19308 1583 c7 -3 16 -2 19 1 4 3 -2 6 -13 5 -11 0 -14 -3 -6 -6z"/>
<path d="M5992 1550 c0 -14 2 -19 5 -12 2 6 2 18 0 25 -3 6 -5 1 -5 -13z"/>
<path d="M19020 1549 c0 -5 5 -7 10 -4 6 3 10 8 10 11 0 2 -4 4 -10 4 -5 0
-10 -5 -10 -11z"/>
<path d="M9940 1499 c0 -11 5 -17 10 -14 6 3 10 13 10 21 0 8 -4 14 -10 14 -5
0 -10 -9 -10 -21z"/>
<path d="M9997 1509 c7 -7 15 -10 18 -7 3 3 -2 9 -12 12 -14 6 -15 5 -6 -5z"/>
<path d="M10043 1503 c9 -2 23 -2 30 0 6 3 -1 5 -18 5 -16 0 -22 -2 -12 -5z"/>
<path d="M11205 1499 c-12 -19 5 -23 22 -6 16 16 16 17 1 17 -9 0 -20 -5 -23
-11z"/>
<path d="M912 1472 c2 -15 8 -33 15 -39 13 -15 27 -17 19 -4 -4 5 0 11 6 14 9
3 3 13 -15 30 l-28 27 3 -28z"/>
<path d="M1268 1493 c6 -2 18 -2 25 0 6 3 1 5 -13 5 -14 0 -19 -2 -12 -5z"/>
<path d="M11275 1480 c3 -5 11 -10 16 -10 6 0 7 5 4 10 -3 6 -11 10 -16 10 -6
0 -7 -4 -4 -10z"/>
<path d="M1250 1470 c0 -5 19 -10 43 -10 31 0 38 3 27 10 -20 13 -70 13 -70 0z"/>
<path d="M907 1396 c-5 -12 0 -16 23 -16 23 0 28 4 23 16 -5 13 -7 13 -14 2
-8 -11 -10 -11 -18 0 -7 11 -9 11 -14 -2z"/>
<path d="M5003 1385 c10 -7 25 -22 32 -32 8 -10 15 -13 15 -6 0 15 -39 53 -54
53 -6 0 -3 -7 7 -15z"/>
<path d="M12456 1361 c5 -6 21 -11 36 -13 15 -2 30 -7 34 -11 12 -11 76 -8 69
3 -4 6 -15 8 -25 5 -10 -3 -25 1 -33 10 -9 8 -33 15 -53 15 -24 0 -34 -4 -28
-9z"/>
<path d="M12860 1341 c0 -5 -12 -12 -27 -14 -16 -3 -8 -4 17 -3 25 0 44 6 43
11 -3 13 -33 19 -33 6z"/>
<path d="M12690 1330 c20 -13 63 -13 55 0 -3 6 -21 10 -38 10 -24 0 -28 -3
-17 -10z"/>
<path d="M13135 1320 c28 -12 93 -12 100 0 4 6 -17 10 -57 9 -44 0 -57 -3 -43
-9z"/>
<path d="M5083 1293 c-15 -5 -17 -23 -4 -23 5 0 11 7 15 15 3 8 4 15 3 14 -1
0 -8 -3 -14 -6z"/>
<path d="M12091 1274 c0 -11 3 -14 6 -6 3 7 2 16 -1 19 -3 4 -6 -2 -5 -13z"/>
<path d="M5340 1160 c0 -13 20 -13 40 0 12 8 9 10 -12 10 -16 0 -28 -4 -28
-10z"/>
<path d="M5395 1150 c-16 -7 -17 -9 -3 -9 9 -1 20 4 23 9 7 11 7 11 -20 0z"/>
<path d="M4550 1055 c7 -8 22 -15 33 -15 20 0 20 0 1 15 -27 20 -51 20 -34 0z"/>
<path d="M11768 1013 c7 -3 16 -2 19 1 4 3 -2 6 -13 5 -11 0 -14 -3 -6 -6z"/>
<path d="M4700 994 c0 -15 22 -44 34 -44 7 0 26 -6 42 -14 83 -38 99 -44 103
-40 9 8 -52 53 -108 79 -54 25 -71 30 -71 19z"/>
<path d="M10176 965 c-3 -9 -6 -24 -5 -33 0 -9 5 -4 10 12 9 32 6 48 -5 21z"/>
<path d="M4825 870 c-6 -9 55 -31 65 -23 7 6 -31 33 -46 33 -7 0 -15 -4 -19
-10z"/>
<path d="M7301 828 c0 -13 3 -17 6 -10 2 6 14 12 26 13 21 0 21 1 2 9 -31 13
-35 12 -34 -12z"/>
<path d="M6766 798 c7 -11 34 -10 34 1 0 6 -9 9 -19 8 -11 0 -17 -5 -15 -9z"/>
<path d="M19768 753 c7 -3 16 -2 19 1 4 3 -2 6 -13 5 -11 0 -14 -3 -6 -6z"/>
<path d="M6411 694 c0 -11 3 -14 6 -6 3 7 2 16 -1 19 -3 4 -6 -2 -5 -13z"/>
<path d="M6451 613 c-6 -20 -9 -38 -7 -40 6 -6 23 22 30 50 10 41 -12 33 -23
-10z"/>
<path d="M7040 640 c0 -5 7 -10 16 -10 8 0 12 5 9 10 -3 6 -10 10 -16 10 -5 0
-9 -4 -9 -10z"/>
<path d="M6390 505 c0 -6 6 -17 13 -24 10 -11 9 -13 -6 -8 -15 6 -16 4 -6 -16
8 -14 14 -17 17 -9 2 6 8 9 14 6 6 -4 6 0 -1 12 -20 36 -31 49 -31 39z"/>
<path d="M6538 443 c7 -3 16 -2 19 1 4 3 -2 6 -13 5 -11 0 -14 -3 -6 -6z"/>
<path d="M5535 420 c-18 -8 -17 -9 8 -9 15 -1 27 4 27 9 0 12 -8 12 -35 0z"/>
<path d="M6370 420 c0 -5 5 -10 10 -10 6 0 10 5 10 10 0 6 -4 10 -10 10 -5 0
-10 -4 -10 -10z"/>
<path d="M6445 380 c3 -5 8 -10 11 -10 2 0 4 5 4 10 0 6 -5 10 -11 10 -5 0 -7
-4 -4 -10z"/>
<path d="M5910 341 c0 -6 4 -13 10 -16 6 -3 7 1 4 9 -7 18 -14 21 -14 7z"/>
<path d="M5720 330 c0 -5 5 -10 10 -10 6 0 10 5 10 10 0 6 -4 10 -10 10 -5 0
-10 -4 -10 -10z"/>
<path d="M5990 330 c-13 -8 -12 -10 3 -10 9 0 17 5 17 10 0 12 -1 12 -20 0z"/>
<path d="M5782 314 c14 -14 21 -15 30 -6 8 8 9 12 1 12 -6 0 -20 3 -30 6 -17
7 -17 6 -1 -12z"/>
<path d="M5400 287 c0 -19 26 -43 90 -82 30 -19 60 -39 67 -45 7 -5 17 -10 24
-10 14 0 59 -47 59 -61 0 -5 6 -9 14 -9 8 0 30 -18 49 -40 27 -32 40 -40 68
-40 l34 0 -25 20 c-22 17 -23 22 -13 39 10 16 10 26 1 48 -14 33 -66 83 -85
83 -8 0 -16 6 -19 14 -3 7 -23 16 -44 20 -21 3 -40 9 -42 13 -1 5 -26 20 -54
36 -55 29 -124 37 -124 14z"/>
<path d="M2165 20 c3 -5 8 -10 11 -10 2 0 4 5 4 10 0 6 -5 10 -11 10 -5 0 -7
-4 -4 -10z"/>
</g>
</svg>
